<svg xmlns="http://www.w3.org/2000/svg" viewBox="0 0 160 50">
  <path d="M36.2 46.4c-.7 0-1.3-.6-1.3-1.3 0-.7.6-1.3 1.3-1.3.7 0 1.3.6 1.3 1.3 0 .7-.6 1.3-1.3 1.3zm7 0c-1.1 0-2-.9-2-2s.9-2 2-2 2 .9 2 2-.9 2-2 2zm8.4 0c-1.5 0-2.7-1.2-2.7-2.7 0-1.5 1.2-2.7 2.7-2.7 1.5 0 2.7 1.2 2.7 2.7 0 1.5-1.2 2.7-2.7 2.7zm9.8 0c-1.8 0-3.3-1.5-3.3-3.3 0-1.8 1.5-3.3 3.3-3.3 1.8 0 3.3 1.5 3.3 3.3 0 1.8-1.5 3.3-3.3 3.3zm11.1 0c-2.2 0-4-1.8-4-4s1.8-4 4-4 4 1.8 4 4-1.8 4-4 4zm12.4 0c-2.6 0-4.7-2.1-4.7-4.7s2.1-4.7 4.7-4.7 4.7 2.1 4.7 4.7-2.1 4.7-4.7 4.7zm12.5 0c-2.2 0-4-1.8-4-4s1.8-4 4-4 4 1.8 4 4-1.8 4-4 4zm11.1 0c-1.8 0-3.3-1.5-3.3-3.3 0-1.8 1.5-3.3 3.3-3.3 1.8 0 3.3 1.5 3.3 3.3 0 1.8-1.5 3.3-3.3 3.3zm9.7 0c-1.5 0-2.7-1.2-2.7-2.7 0-1.5 1.2-2.7 2.7-2.7 1.5 0 2.7 1.2 2.7 2.7 0 1.5-1.2 2.7-2.7 2.7zm8.4 0c-1.1 0-2-.9-2-2s.9-2 2-2 2 .9 2 2-.9 2-2 2zm7.1 0c-.7 0-1.3-.6-1.3-1.3 0-.7.6-1.3 1.3-1.3.7 0 1.3.6 1.3 1.3 0 .7-.6 1.3-1.3 1.3zM4.1 21c1.1-.3 1.1-.8 1.3-2.3v-.3c.1-1.9.7-2.4 2.3-2.8l1.1-.3 5 19.1c1 3.9-2.5 1.8-1.8 4.6l.5 2c5-1.5 10.1-2.8 15.3-4l-.5-2c-.7-2.8-2.8.7-3.8-3.1l-5-19.1 1.1-.3c1.6-.4 2.4-.2 3.4 1.3l.1.2c.9 1.3 1.2 1.7 2.3 1.4l2-.5-2.1-8.2c-8.6 1.8-17 4-25.3 6.6l2.1 8.2 2-.5zM34.8 11.9l2.7 16.7c.7 4.2-2.4 1.9-1.9 4.6l.3 2c5-1 10-1.8 15.1-2.5l-.3-2c-.4-2.7-2.6.4-3.3-3.7l-2.8-16.7c-.6-4.2 2.4-1.9 2-4.6L46.2 3c-5.1.7-10.1 1.5-15.1 2.5l.4 2.7c.5 2.7 2.6-.5 3.3 3.7zM54.4 7.4l10 23.8c2.4-.2 4.7-.4 7.1-.5l6.8-24.2c.7-2.6 3.1-1.9 3-3.7L81 .3 70.8.6l.2 2.8c.1 2 2.4.7 2.6 2.8 0 .6-.2 1.8-.5 3l-2.5 10h-.1l-5-11.5c-1.4-3.3 2.6-1.6 2.4-4.1L67.7.9c-5.5.3-11 .8-16.4 1.5l.2 2.3c.3 2.1 2 .7 2.9 2.7zM123.3 9.6l-2.8 16.7c-.7 4.2-2.8 1-3.3 3.7l-.3 2.2c7.3.9 14.5 2 21.5 3.5l1.9-8.8-1.7-.3c-3.7-.6-2 4.6-8.2 3.7h-.4l3.2-18.9c.7-4.2 2.8-1 3.3-3.7L137 5c-5-.9-10-1.6-15.1-2.3l-.6 2.3c-.4 2.7 2.6.4 2 4.6zM149.7 14.5l-4.1 16.4c-1 4.1-2.9.8-3.6 3.5l-.5 2c5 1.1 10 2.3 14.8 3.7l.5-2c.7-2.7-2.6-.6-1.5-4.7l4.1-16.4c1-4.1 2.9-.8 3.6-3.5l.7-2.6c-4.9-1.4-9.8-2.6-14.8-3.7l-.7 2.6c-.7 2.6 2.6.6 1.5 4.7z"/>
</svg>
