<svg width="24" height="24" viewBox="0 0 24 24" xmlns="http://www.w3.org/2000/svg" aria-hidden="true" class="Icon__StyledIcon-sc-dheuii-0">
  <path d="M21.2444 7.40928C21.1444 7.30928 20.9444 7.20928 20.8444 7.20928H15.5444V7.00928C15.4444 5.60928 14.9444 4.20928 14.2444 3.20928C13.4444 2.10928 12.3444 1.50928 11.2444 1.50928C10.1444 1.50928 8.94444 2.10928 8.14444 3.20928C7.44444 4.20928 6.94444 5.60928 6.84444 7.00928V7.20928H1.74444C1.54444 7.20928 1.34444 7.30928 1.24444 7.50928C1.04444 7.80928 1.24444 8.20928 1.24444 8.40928L5.84444 22.1093C5.94444 22.3093 6.14444 22.5093 6.34444 22.5093H15.4444C15.6444 22.5093 15.7444 22.4093 15.8444 22.3093C15.9444 22.2093 16.0444 22.0093 15.9444 21.9093C15.9444 21.8093 15.9444 21.6093 15.7444 21.5093C15.8444 21.3093 15.7444 21.2093 15.5444 21.2093H6.84444L2.54444 8.40928H20.8444C21.2444 8.40928 21.3444 8.00928 21.3444 7.80928C21.3444 7.70928 21.3444 7.50928 21.2444 7.40928ZM7.84444 7.30928V7.10928C7.94444 6.10928 8.24444 4.80928 8.84444 3.90928C9.44444 3.00928 10.2444 2.60928 11.1444 2.60928C11.9444 2.60928 12.7444 3.10928 13.4444 3.90928C14.0444 4.70928 14.3444 5.90928 14.4444 7.00928V7.20928L7.84444 7.30928Z"></path>
  <path d="M22.8444 15.4093C22.8444 15.7093 22.5444 16.0093 22.2444 16.0093H19.3444V18.9093C19.3444 19.2093 19.1444 19.5093 18.7444 19.5093C18.4444 19.5093 18.1444 19.3093 18.1444 18.9093V16.0093H15.2444C14.9444 16.0093 14.6444 15.7093 14.6444 15.4093C14.6444 15.1093 14.9444 14.8093 15.2444 14.8093H18.1444V11.9093C18.1444 11.6093 18.3444 11.3093 18.7444 11.3093C19.0444 11.3093 19.3444 11.5093 19.3444 11.9093V14.8093H22.2444C22.5444 14.8093 22.8444 15.1093 22.8444 15.4093Z"></path>
</svg>
