<svg xmlns="http://www.w3.org/2000/svg" xmlns:xlink="http://www.w3.org/1999/xlink" width="1000" zoomAndPan="magnify" viewBox="0 0 750 749.999995" height="1000" preserveAspectRatio="xMidYMid meet" version="1.0"><defs><clipPath id="bf1bc9c499"><path d="M 375 0 C 167.894531 0 0 167.894531 0 375 C 0 582.105469 167.894531 750 375 750 C 582.105469 750 750 582.105469 750 375 C 750 167.894531 582.105469 0 375 0 Z M 375 0 " clip-rule="nonzero"/></clipPath><clipPath id="f449bca3dc"><path d="M 0 0 L 750 0 L 750 750 L 0 750 Z M 0 0 " clip-rule="nonzero"/></clipPath><clipPath id="cc92a1225e"><path d="M 375 0 C 167.894531 0 0 167.894531 0 375 C 0 582.105469 167.894531 750 375 750 C 582.105469 750 750 582.105469 750 375 C 750 167.894531 582.105469 0 375 0 Z M 375 0 " clip-rule="nonzero"/></clipPath><clipPath id="a91928f602"><rect x="0" width="750" y="0" height="750"/></clipPath><clipPath id="3a796a72a2"><path d="M 139 146.410156 L 593 146.410156 L 593 587 L 139 587 Z M 139 146.410156 " clip-rule="nonzero"/></clipPath><clipPath id="4b8dbdb231"><path d="M 245.714844 312.054688 L 501.300781 312.054688 L 501.300781 422.652344 L 245.714844 422.652344 Z M 245.714844 312.054688 " clip-rule="nonzero"/></clipPath><clipPath id="3dc01f4e67"><path d="M 0.714844 0.0546875 L 256.300781 0.0546875 L 256.300781 110.652344 L 0.714844 110.652344 Z M 0.714844 0.0546875 " clip-rule="nonzero"/></clipPath><clipPath id="6fd1d61f08"><rect x="0" width="257" y="0" height="111"/></clipPath><clipPath id="e6fe240310"><path d="M 294.855469 248.679688 L 480.855469 248.679688 L 480.855469 434.679688 L 294.855469 434.679688 Z M 294.855469 248.679688 " clip-rule="nonzero"/></clipPath><clipPath id="5354007e22"><path d="M 448.730469 254.660156 L 475.730469 254.660156 L 475.730469 279.257812 L 448.730469 279.257812 Z M 448.730469 254.660156 " clip-rule="nonzero"/></clipPath><clipPath id="5ef016a511"><path d="M 461.03125 254.660156 L 463.429688 254.660156 C 466.691406 254.660156 469.820312 255.957031 472.128906 258.261719 C 474.433594 260.566406 475.730469 263.695312 475.730469 266.957031 C 475.730469 270.21875 474.433594 273.347656 472.128906 275.65625 C 469.820312 277.960938 466.691406 279.257812 463.429688 279.257812 L 461.03125 279.257812 C 457.769531 279.257812 454.640625 277.960938 452.335938 275.65625 C 450.027344 273.347656 448.730469 270.21875 448.730469 266.957031 C 448.730469 263.695312 450.027344 260.566406 452.335938 258.261719 C 454.640625 255.957031 457.769531 254.660156 461.03125 254.660156 Z M 461.03125 254.660156 " clip-rule="nonzero"/></clipPath><clipPath id="b8a1a6858a"><path d="M 0.730469 0.660156 L 27.730469 0.660156 L 27.730469 25.257812 L 0.730469 25.257812 Z M 0.730469 0.660156 " clip-rule="nonzero"/></clipPath><clipPath id="90e402496d"><path d="M 13.03125 0.660156 L 15.429688 0.660156 C 18.691406 0.660156 21.820312 1.957031 24.128906 4.261719 C 26.433594 6.566406 27.730469 9.695312 27.730469 12.957031 C 27.730469 16.21875 26.433594 19.347656 24.128906 21.65625 C 21.820312 23.960938 18.691406 25.257812 15.429688 25.257812 L 13.03125 25.257812 C 9.769531 25.257812 6.640625 23.960938 4.335938 21.65625 C 2.027344 19.347656 0.730469 16.21875 0.730469 12.957031 C 0.730469 9.695312 2.027344 6.566406 4.335938 4.261719 C 6.640625 1.957031 9.769531 0.660156 13.03125 0.660156 Z M 13.03125 0.660156 " clip-rule="nonzero"/></clipPath><clipPath id="8dc40023ff"><rect x="0" width="28" y="0" height="26"/></clipPath><clipPath id="c064de56d3"><path d="M 402.53125 248.679688 L 429.53125 248.679688 L 429.53125 273.277344 L 402.53125 273.277344 Z M 402.53125 248.679688 " clip-rule="nonzero"/></clipPath><clipPath id="49b92b9880"><path d="M 414.832031 248.679688 L 417.230469 248.679688 C 420.492188 248.679688 423.621094 249.976562 425.925781 252.28125 C 428.234375 254.589844 429.53125 257.714844 429.53125 260.976562 C 429.53125 264.238281 428.234375 267.367188 425.925781 269.675781 C 423.621094 271.980469 420.492188 273.277344 417.230469 273.277344 L 414.832031 273.277344 C 411.570312 273.277344 408.441406 271.980469 406.132812 269.675781 C 403.828125 267.367188 402.53125 264.238281 402.53125 260.976562 C 402.53125 257.714844 403.828125 254.589844 406.132812 252.28125 C 408.441406 249.976562 411.570312 248.679688 414.832031 248.679688 Z M 414.832031 248.679688 " clip-rule="nonzero"/></clipPath><clipPath id="2c17b2f3c4"><path d="M 0.53125 0.679688 L 27.53125 0.679688 L 27.53125 25.277344 L 0.53125 25.277344 Z M 0.53125 0.679688 " clip-rule="nonzero"/></clipPath><clipPath id="4240a2a021"><path d="M 12.832031 0.679688 L 15.230469 0.679688 C 18.492188 0.679688 21.621094 1.976562 23.925781 4.28125 C 26.234375 6.589844 27.53125 9.714844 27.53125 12.976562 C 27.53125 16.238281 26.234375 19.367188 23.925781 21.675781 C 21.621094 23.980469 18.492188 25.277344 15.230469 25.277344 L 12.832031 25.277344 C 9.570312 25.277344 6.441406 23.980469 4.132812 21.675781 C 1.828125 19.367188 0.53125 16.238281 0.53125 12.976562 C 0.53125 9.714844 1.828125 6.589844 4.132812 4.28125 C 6.441406 1.976562 9.570312 0.679688 12.832031 0.679688 Z M 12.832031 0.679688 " clip-rule="nonzero"/></clipPath><clipPath id="fba5042607"><rect x="0" width="28" y="0" height="26"/></clipPath></defs><g clip-path="url(#bf1bc9c499)"><g transform="matrix(1, 0, 0, 1, 0, -0.000000000000042435)"><g clip-path="url(#a91928f602)"><g clip-path="url(#f449bca3dc)"><g clip-path="url(#cc92a1225e)"><rect x="-165" width="1080" fill="#000000" height="1079.999992" y="-164.999999" fill-opacity="1"/></g></g></g></g></g><g clip-path="url(#3a796a72a2)"><path fill="#ffffff" d="M 529.109375 546.550781 L 248.671875 546.550781 C 246.726562 546.550781 244.894531 547.492188 243.757812 549.074219 L 217.105469 586.226562 L 139.082031 586.226562 L 196.617188 506.03125 L 200.007812 502.042969 C 211.980469 490.078125 227.980469 483.570312 244.933594 483.570312 L 529.109375 483.570312 L 529.109375 209.390625 L 245.675781 209.390625 L 245.675781 321.496094 L 492.132812 321.496094 L 492.132812 384.480469 L 245.675781 384.480469 C 210.605469 384.480469 182.101562 356.242188 182.101562 321.496094 L 182.101562 209.390625 C 182.101562 174.644531 210.605469 146.410156 245.675781 146.410156 L 529.109375 146.410156 C 564.179688 146.410156 592.683594 174.644531 592.683594 209.390625 L 592.683594 483.570312 C 592.683594 518.3125 564.179688 546.550781 529.109375 546.550781 Z M 529.109375 546.550781 " fill-opacity="1" fill-rule="nonzero"/></g><g clip-path="url(#4b8dbdb231)"><g transform="matrix(1, 0, 0, 1, 245, 312)"><g clip-path="url(#6fd1d61f08)"><g clip-path="url(#3dc01f4e67)"><path fill="#000000" d="M 0.714844 0.0546875 L 256.46875 0.0546875 L 256.46875 110.652344 L 0.714844 110.652344 Z M 0.714844 0.0546875 " fill-opacity="1" fill-rule="nonzero"/></g></g></g></g><path fill="#ffffff" d="M 366.886719 384.789062 C 355.222656 387.53125 352.996094 389.757812 350.253906 401.425781 C 347.507812 389.757812 345.285156 387.53125 333.617188 384.789062 C 345.28125 382.042969 347.507812 379.820312 350.253906 368.152344 C 352.996094 379.820312 355.222656 382.042969 366.886719 384.789062 Z M 366.886719 384.789062 " fill-opacity="1" fill-rule="nonzero"/><g clip-path="url(#e6fe240310)"><path fill="#ffffff" d="M 480.800781 341.652344 C 394.828125 345.515625 391.695312 348.648438 387.828125 434.625 C 383.964844 348.648438 380.832031 345.515625 294.855469 341.652344 C 380.832031 337.785156 383.964844 334.652344 387.828125 248.679688 C 391.695312 334.652344 394.828125 337.785156 480.800781 341.652344 Z M 480.800781 341.652344 " fill-opacity="1" fill-rule="nonzero"/></g><path fill="#ffffff" d="M 366.835938 292.546875 C 347.636719 293.410156 346.9375 294.109375 346.074219 313.308594 C 345.210938 294.109375 344.511719 293.410156 325.3125 292.546875 C 344.511719 291.683594 345.210938 290.984375 346.074219 271.785156 C 346.9375 290.984375 347.636719 291.683594 366.835938 292.546875 Z M 366.835938 292.546875 " fill-opacity="1" fill-rule="nonzero"/><path fill="#ffffff" d="M 471.09375 290.789062 C 442.898438 292.054688 441.871094 293.082031 440.601562 321.277344 C 439.335938 293.082031 438.308594 292.054688 410.113281 290.789062 C 438.308594 289.519531 439.335938 288.492188 440.601562 260.296875 C 441.871094 288.492188 442.898438 289.519531 471.09375 290.789062 Z M 471.09375 290.789062 " fill-opacity="1" fill-rule="nonzero"/><path fill="#ffffff" d="M 471.09375 270.023438 C 463.414062 270.371094 463.132812 270.648438 462.789062 278.328125 C 462.441406 270.648438 462.164062 270.371094 454.480469 270.023438 C 462.164062 269.679688 462.441406 269.398438 462.789062 261.71875 C 463.132812 269.398438 463.414062 269.679688 471.09375 270.023438 Z M 471.09375 270.023438 " fill-opacity="1" fill-rule="nonzero"/><path fill="#ffffff" d="M 423.191406 260.296875 C 415.511719 260.640625 415.230469 260.921875 414.886719 268.601562 C 414.542969 260.921875 414.261719 260.640625 406.582031 260.296875 C 414.261719 259.953125 414.542969 259.671875 414.886719 251.992188 C 415.230469 259.671875 415.511719 259.953125 423.191406 260.296875 Z M 423.191406 260.296875 " fill-opacity="1" fill-rule="nonzero"/><g clip-path="url(#5354007e22)"><g clip-path="url(#5ef016a511)"><g transform="matrix(1, 0, 0, 1, 448, 254)"><g clip-path="url(#8dc40023ff)"><g clip-path="url(#b8a1a6858a)"><g clip-path="url(#90e402496d)"><path fill="#000000" d="M 0.730469 0.660156 L 27.730469 0.660156 L 27.730469 25.257812 L 0.730469 25.257812 Z M 0.730469 0.660156 " fill-opacity="1" fill-rule="nonzero"/></g></g></g></g></g></g><g clip-path="url(#c064de56d3)"><g clip-path="url(#49b92b9880)"><g transform="matrix(1, 0, 0, 1, 402, 248)"><g clip-path="url(#fba5042607)"><g clip-path="url(#2c17b2f3c4)"><g clip-path="url(#4240a2a021)"><path fill="#000000" d="M 0.53125 0.679688 L 27.53125 0.679688 L 27.53125 25.277344 L 0.53125 25.277344 Z M 0.53125 0.679688 " fill-opacity="1" fill-rule="nonzero"/></g></g></g></g></g></g></svg>