<svg width="48" height="48" viewBox="0 0 48 48" fill="none" xmlns="http://www.w3.org/2000/svg">
<rect width="48" height="48" rx="24" fill="#241D26"/>
<path d="M24.1445 19C24.5059 19.8395 25.0043 20.5785 25.6377 21.2119C26.2712 21.8452 27.0102 22.3427 27.8496 22.7041C27.8611 22.7091 27.8732 22.7139 27.8848 22.7188C27.8731 22.7237 27.8613 22.7284 27.8496 22.7334C27.0101 23.0948 26.2712 23.5931 25.6377 24.2266C25.0044 24.8602 24.506 25.5989 24.1445 26.4385C24.1395 26.4501 24.1348 26.462 24.1299 26.4736C24.125 26.462 24.1202 26.4501 24.1152 26.4385C23.7539 25.5993 23.2568 24.86 22.623 24.2266C21.9894 23.5933 21.2507 23.0948 20.4111 22.7334C20.3993 22.7283 20.3869 22.7238 20.375 22.7188C20.3868 22.7137 20.3993 22.7092 20.4111 22.7041L20.4102 22.7031C21.2497 22.3417 21.9896 21.8454 22.623 21.2119C23.2564 20.5785 23.7538 19.8393 24.1152 19C24.1203 18.9882 24.1249 18.9757 24.1299 18.9639L24.1445 19Z" stroke="#F8EBEB" stroke-width="1.12941"/>
<path d="M34.5244 15.0157V30.5197L18.1973 30.5197L18.04 30.6515L13.4756 34.4747L13.4756 15.0157L34.5244 15.0157Z" stroke="#FBF6F1" stroke-width="1.12941" stroke-linecap="round"/>
</svg>
