<svg width="162" height="162" viewBox="0 0 162 162" fill="none" xmlns="http://www.w3.org/2000/svg">
<g filter="url(#filter0_d_177_278)">
<circle cx="81.0638" cy="81.0638" r="63.0638" fill="#EFEAE8"/>
</g>
<circle cx="73.0609" cy="78.9647" r="2.18589" fill="black"/>
<circle cx="81.3421" cy="78.9647" r="2.18589" fill="black"/>
<circle cx="89.6234" cy="78.9647" r="2.18589" fill="black"/>
<path fill-rule="evenodd" clip-rule="evenodd" d="M51.959 59.3001C51.959 58.5044 52.6106 57.8594 53.4143 57.8594H108.716C109.52 57.8594 110.172 58.5044 110.172 59.3001V96.76C110.172 97.5556 109.52 98.2008 108.716 98.2008H73.3291L64.0256 105.569C63.6386 105.876 63.1206 105.966 62.651 105.809C62.1814 105.652 61.8248 105.269 61.7046 104.793L60.0397 98.2008H53.4143C52.6106 98.2008 51.959 97.5556 51.959 96.76V59.3001ZM54.8696 60.7409V95.3192H61.176C61.8438 95.3192 62.4259 95.769 62.5879 96.4105L63.9783 101.916L71.9094 95.635C72.1675 95.4305 72.4881 95.3192 72.8186 95.3192H107.261V60.7409H54.8696Z" fill="black"/>
<defs>
<filter id="filter0_d_177_278" x="3" y="3" width="156.127" height="156.127" filterUnits="userSpaceOnUse" color-interpolation-filters="sRGB">
<feFlood flood-opacity="0" result="BackgroundImageFix"/>
<feColorMatrix in="SourceAlpha" type="matrix" values="0 0 0 0 0 0 0 0 0 0 0 0 0 0 0 0 0 0 127 0" result="hardAlpha"/>
<feMorphology radius="4" operator="dilate" in="SourceAlpha" result="effect1_dropShadow_177_278"/>
<feOffset/>
<feGaussianBlur stdDeviation="5.5"/>
<feComposite in2="hardAlpha" operator="out"/>
<feColorMatrix type="matrix" values="0 0 0 0 0 0 0 0 0 0 0 0 0 0 0 0 0 0 0.16 0"/>
<feBlend mode="normal" in2="BackgroundImageFix" result="effect1_dropShadow_177_278"/>
<feBlend mode="normal" in="SourceGraphic" in2="effect1_dropShadow_177_278" result="shape"/>
</filter>
</defs>
</svg>
