<svg width="78" height="78" viewBox="0 0 78 78" fill="none" xmlns="http://www.w3.org/2000/svg">
<rect width="78" height="78" rx="39" fill="#EFEAE8"/>
<path d="M57.3877 26.6123V48.3467H36.9238L36.7422 48.5391V48.54H36.7412C36.7407 48.5406 36.7403 48.5419 36.7393 48.543C36.7372 48.5452 36.7336 48.5483 36.7295 48.5527C36.7212 48.5616 36.7086 48.5746 36.6924 48.5918C36.66 48.6262 36.6129 48.6773 36.5518 48.7422C36.4294 48.8721 36.2524 49.0594 36.0361 49.2891C35.6037 49.7483 35.0121 50.3768 34.375 51.0537C33.1331 52.3732 31.7169 53.8768 30.9727 54.6709C30.9226 53.9201 30.8345 52.524 30.7578 51.2949C30.718 50.6571 30.6811 50.0647 30.6543 49.6318C30.6409 49.4154 30.6306 49.2387 30.623 49.1162C30.6193 49.0551 30.6163 49.007 30.6143 48.9746C30.6133 48.9588 30.6128 48.9467 30.6123 48.9385C30.612 48.9343 30.6115 48.9308 30.6113 48.9287V48.9258L30.5762 48.3516L30.001 48.3506L21.6123 48.3428V26.6123H57.3877Z" stroke="#771921" stroke-width="1.22449" stroke-miterlimit="10"/>
<circle cx="33.0657" cy="38.0652" r="1.6087" fill="#771921"/>
<circle cx="39.4993" cy="38.0652" r="1.6087" fill="#771921"/>
<circle cx="45.9349" cy="38.0652" r="1.6087" fill="#771921"/>
</svg>
