<svg width="118" height="118" viewBox="0 0 118 118" fill="none" xmlns="http://www.w3.org/2000/svg">
<g filter="url(#filter0_d_177_288)">
<rect x="20" y="20" width="78" height="78" rx="39" fill="#F4F3F0"/>
<path d="M76.9375 47.1196H42V68.2277H51.6379V74.4425L58.125 68.2277H76.9375V47.1196Z" stroke="#771921" stroke-width="1.11503"/>
<path d="M79.6247 44.4302C80.6924 45.4981 82.0612 46.157 83.3816 46.157L84.5514 46.1543V48.0829H83.3843C82.0639 48.0829 80.6951 48.7419 79.6274 49.8097C78.5598 50.8775 77.9009 52.2466 77.9009 53.5672V54.7345H75.9728V53.5699C75.9728 52.2492 75.3112 50.8775 74.2463 49.8124C73.2297 48.7445 71.8098 48.0856 70.4894 48.0856H69.3223V46.157H70.4867C71.8071 46.157 73.1759 45.4981 74.2436 44.4302C75.3112 43.3624 75.9701 41.9934 75.9701 40.6727V39.5054H77.8983V40.6727C77.8983 41.9934 78.5571 43.3624 79.6247 44.4302Z" fill="#F4F3F0" stroke="#F4F3F0" stroke-width="7.16667"/>
<path d="M76.9365 39.9419C77.6145 43.5856 80.4706 46.4409 84.1143 47.1187C80.4708 47.797 77.6148 50.653 76.9365 54.2964C76.2587 50.6527 73.4035 47.7966 69.7598 47.1187C73.4038 46.4412 76.2591 43.5859 76.9365 39.9419Z" fill="#F4F3F0" stroke="#771921" stroke-width="0.895833"/>
</g>
<defs>
<filter id="filter0_d_177_288" x="0" y="0" width="118" height="118" filterUnits="userSpaceOnUse" color-interpolation-filters="sRGB">
<feFlood flood-opacity="0" result="BackgroundImageFix"/>
<feColorMatrix in="SourceAlpha" type="matrix" values="0 0 0 0 0 0 0 0 0 0 0 0 0 0 0 0 0 0 127 0" result="hardAlpha"/>
<feOffset/>
<feGaussianBlur stdDeviation="10"/>
<feComposite in2="hardAlpha" operator="out"/>
<feColorMatrix type="matrix" values="0 0 0 0 0 0 0 0 0 0 0 0 0 0 0 0 0 0 0.1 0"/>
<feBlend mode="normal" in2="BackgroundImageFix" result="effect1_dropShadow_177_288"/>
<feBlend mode="normal" in="SourceGraphic" in2="effect1_dropShadow_177_288" result="shape"/>
</filter>
</defs>
</svg>
