<svg width="78" height="78" viewBox="0 0 78 78" fill="none" xmlns="http://www.w3.org/2000/svg">
<rect width="78" height="78" fill="black"/>
<path d="M65.8691 17.1309V56.2441H40.6533L28.5674 64.7119L27.1992 65.6709V56.2441H13.1309V17.1309H65.8691Z" stroke="white" stroke-width="1.73864"/>
<path d="M46.1238 38.2979L50 39.0797C49.0228 44.1286 45.0489 46.9299 40.3257 46.9299C34.5603 46.9299 30 42.4348 30 36.6693C30 30.9364 34.5277 26.4087 40.3257 26.4087C45.0489 26.4087 48.9902 29.2426 50 33.9657L46.1238 35.0406C45.4072 31.653 43.0619 30.1546 40.3257 30.1546C36.8078 30.1546 34.0391 32.9234 34.0391 36.6693C34.0391 40.3826 36.8078 43.2165 40.3257 43.2165C43.0293 43.2165 45.3746 41.7181 46.1238 38.2979Z" fill="white"/>
</svg>
