<svg xmlns="http://www.w3.org/2000/svg" xmlns:xlink="http://www.w3.org/1999/xlink" width="1000" zoomAndPan="magnify" viewBox="0 0 750 749.999995" height="1000" preserveAspectRatio="xMidYMid meet" version="1.0"><defs><clipPath id="79f8042d9b"><path d="M 0 0 L 749 0 L 749 750 L 0 750 Z M 0 0 " clip-rule="nonzero"/></clipPath><clipPath id="4735d49174"><rect x="0" width="750" y="0" height="750"/></clipPath><clipPath id="35f7a2d302"><path d="M 139 146.410156 L 593 146.410156 L 593 587 L 139 587 Z M 139 146.410156 " clip-rule="nonzero"/></clipPath><clipPath id="9e9cafb087"><path d="M 245.714844 312.054688 L 501.300781 312.054688 L 501.300781 422.652344 L 245.714844 422.652344 Z M 245.714844 312.054688 " clip-rule="nonzero"/></clipPath><clipPath id="15f9a9ff82"><path d="M 0.714844 0.0546875 L 256.300781 0.0546875 L 256.300781 110.652344 L 0.714844 110.652344 Z M 0.714844 0.0546875 " clip-rule="nonzero"/></clipPath><clipPath id="91c6d827e6"><rect x="0" width="257" y="0" height="111"/></clipPath><clipPath id="123adbbcdc"><path d="M 266.183594 228.078125 L 500.933594 228.078125 L 500.933594 462.828125 L 266.183594 462.828125 Z M 266.183594 228.078125 " clip-rule="nonzero"/></clipPath><clipPath id="30078bf11b"><path d="M 463.714844 243.957031 L 490.714844 243.957031 L 490.714844 268.554688 L 463.714844 268.554688 Z M 463.714844 243.957031 " clip-rule="nonzero"/></clipPath><clipPath id="e82924de93"><path d="M 476.015625 243.957031 L 478.414062 243.957031 C 481.675781 243.957031 484.804688 245.253906 487.113281 247.558594 C 489.417969 249.863281 490.714844 252.992188 490.714844 256.253906 C 490.714844 259.515625 489.417969 262.644531 487.113281 264.953125 C 484.804688 267.257812 481.675781 268.554688 478.414062 268.554688 L 476.015625 268.554688 C 472.753906 268.554688 469.625 267.257812 467.316406 264.953125 C 465.011719 262.644531 463.714844 259.515625 463.714844 256.253906 C 463.714844 252.992188 465.011719 249.863281 467.316406 247.558594 C 469.625 245.253906 472.753906 243.957031 476.015625 243.957031 Z M 476.015625 243.957031 " clip-rule="nonzero"/></clipPath><clipPath id="fde74048c8"><path d="M 0.714844 0.957031 L 27.714844 0.957031 L 27.714844 25.554688 L 0.714844 25.554688 Z M 0.714844 0.957031 " clip-rule="nonzero"/></clipPath><clipPath id="1d92d2669a"><path d="M 13.015625 0.957031 L 15.414062 0.957031 C 18.675781 0.957031 21.804688 2.253906 24.113281 4.558594 C 26.417969 6.863281 27.714844 9.992188 27.714844 13.253906 C 27.714844 16.515625 26.417969 19.644531 24.113281 21.953125 C 21.804688 24.257812 18.675781 25.554688 15.414062 25.554688 L 13.015625 25.554688 C 9.753906 25.554688 6.625 24.257812 4.316406 21.953125 C 2.011719 19.644531 0.714844 16.515625 0.714844 13.253906 C 0.714844 9.992188 2.011719 6.863281 4.316406 4.558594 C 6.625 2.253906 9.753906 0.957031 13.015625 0.957031 Z M 13.015625 0.957031 " clip-rule="nonzero"/></clipPath><clipPath id="489d953ae2"><rect x="0" width="28" y="0" height="26"/></clipPath><clipPath id="45288f40b3"><path d="M 406.097656 231.65625 L 433.097656 231.65625 L 433.097656 256.253906 L 406.097656 256.253906 Z M 406.097656 231.65625 " clip-rule="nonzero"/></clipPath><clipPath id="7866ac87b5"><path d="M 418.398438 231.65625 L 420.796875 231.65625 C 424.058594 231.65625 427.1875 232.953125 429.496094 235.257812 C 431.800781 237.566406 433.097656 240.695312 433.097656 243.957031 C 433.097656 247.21875 431.800781 250.347656 429.496094 252.652344 C 427.1875 254.960938 424.058594 256.253906 420.796875 256.253906 L 418.398438 256.253906 C 415.136719 256.253906 412.007812 254.960938 409.703125 252.652344 C 407.394531 250.347656 406.097656 247.21875 406.097656 243.957031 C 406.097656 240.695312 407.394531 237.566406 409.703125 235.257812 C 412.007812 232.953125 415.136719 231.65625 418.398438 231.65625 Z M 418.398438 231.65625 " clip-rule="nonzero"/></clipPath><clipPath id="f063528712"><path d="M 0.0976562 0.65625 L 27.097656 0.65625 L 27.097656 25.253906 L 0.0976562 25.253906 Z M 0.0976562 0.65625 " clip-rule="nonzero"/></clipPath><clipPath id="afbc0626c0"><path d="M 12.398438 0.65625 L 14.796875 0.65625 C 18.058594 0.65625 21.1875 1.953125 23.496094 4.257812 C 25.800781 6.566406 27.097656 9.695312 27.097656 12.957031 C 27.097656 16.21875 25.800781 19.347656 23.496094 21.652344 C 21.1875 23.960938 18.058594 25.253906 14.796875 25.253906 L 12.398438 25.253906 C 9.136719 25.253906 6.007812 23.960938 3.703125 21.652344 C 1.394531 19.347656 0.0976562 16.21875 0.0976562 12.957031 C 0.0976562 9.695312 1.394531 6.566406 3.703125 4.257812 C 6.007812 1.953125 9.136719 0.65625 12.398438 0.65625 Z M 12.398438 0.65625 " clip-rule="nonzero"/></clipPath><clipPath id="4f6f2dee49"><rect x="0" width="28" y="0" height="26"/></clipPath><clipPath id="07fa650491"><path d="M 182.121094 248.679688 L 245.714844 248.679688 L 245.714844 385.476562 L 182.121094 385.476562 Z M 182.121094 248.679688 " clip-rule="nonzero"/></clipPath><clipPath id="f86cd9f0d8"><path d="M 0.121094 0.679688 L 63.714844 0.679688 L 63.714844 137.476562 L 0.121094 137.476562 Z M 0.121094 0.679688 " clip-rule="nonzero"/></clipPath><clipPath id="ad28c7fc95"><rect x="0" width="64" y="0" height="138"/></clipPath><clipPath id="37e980598d"><path d="M 295.28125 253.921875 L 356.59375 253.921875 L 356.59375 312.054688 L 295.28125 312.054688 Z M 295.28125 253.921875 " clip-rule="nonzero"/></clipPath><clipPath id="32aa21294b"><path d="M 324.347656 253.921875 L 327.464844 253.921875 C 343.515625 253.921875 356.53125 266.933594 356.53125 282.988281 C 356.53125 299.039062 343.515625 312.054688 327.464844 312.054688 L 324.347656 312.054688 C 308.296875 312.054688 295.28125 299.039062 295.28125 282.988281 C 295.28125 266.933594 308.296875 253.921875 324.347656 253.921875 Z M 324.347656 253.921875 " clip-rule="nonzero"/></clipPath><clipPath id="edb4b2cf98"><path d="M 0.28125 0.921875 L 61.59375 0.921875 L 61.59375 59.054688 L 0.28125 59.054688 Z M 0.28125 0.921875 " clip-rule="nonzero"/></clipPath><clipPath id="b8056eda91"><path d="M 29.347656 0.921875 L 32.464844 0.921875 C 48.515625 0.921875 61.53125 13.933594 61.53125 29.988281 C 61.53125 46.039062 48.515625 59.054688 32.464844 59.054688 L 29.347656 59.054688 C 13.296875 59.054688 0.28125 46.039062 0.28125 29.988281 C 0.28125 13.933594 13.296875 0.921875 29.347656 0.921875 Z M 29.347656 0.921875 " clip-rule="nonzero"/></clipPath><clipPath id="c701516fe4"><rect x="0" width="62" y="0" height="60"/></clipPath><clipPath id="fea5f768e1"><path d="M 304.824219 375 L 366.136719 375 L 366.136719 433.132812 L 304.824219 433.132812 Z M 304.824219 375 " clip-rule="nonzero"/></clipPath><clipPath id="e6a95f5056"><path d="M 333.890625 375 L 337.003906 375 C 353.058594 375 366.070312 388.015625 366.070312 404.066406 C 366.070312 420.121094 353.058594 433.132812 337.003906 433.132812 L 333.890625 433.132812 C 317.835938 433.132812 304.824219 420.121094 304.824219 404.066406 C 304.824219 388.015625 317.835938 375 333.890625 375 Z M 333.890625 375 " clip-rule="nonzero"/></clipPath><clipPath id="8f3585d739"><path d="M 0.824219 0 L 62.136719 0 L 62.136719 58.132812 L 0.824219 58.132812 Z M 0.824219 0 " clip-rule="nonzero"/></clipPath><clipPath id="d842de5ec2"><path d="M 29.890625 0 L 33.003906 0 C 49.058594 0 62.070312 13.015625 62.070312 29.066406 C 62.070312 45.121094 49.058594 58.132812 33.003906 58.132812 L 29.890625 58.132812 C 13.835938 58.132812 0.824219 45.121094 0.824219 29.066406 C 0.824219 13.015625 13.835938 0 29.890625 0 Z M 29.890625 0 " clip-rule="nonzero"/></clipPath><clipPath id="12e443f3c1"><rect x="0" width="63" y="0" height="59"/></clipPath></defs><rect x="-75" width="900" fill="#ffffff" y="-74.999999" height="899.999994" fill-opacity="1"/><rect x="-75" width="900" fill="#ffffff" y="-74.999999" height="899.999994" fill-opacity="1"/><g transform="matrix(1, 0, 0, 1, 0, -0.000000000000042435)"><g clip-path="url(#4735d49174)"><g clip-path="url(#79f8042d9b)"><path fill="#000000" d="M -4.371094 0 L 748.558594 0 L 748.558594 750 L -4.371094 750 Z M -4.371094 0 " fill-opacity="1" fill-rule="nonzero"/></g></g></g><g clip-path="url(#35f7a2d302)"><path fill="#ffffff" d="M 529.109375 546.550781 L 248.671875 546.550781 C 246.726562 546.550781 244.894531 547.492188 243.757812 549.074219 L 217.105469 586.226562 L 139.082031 586.226562 L 196.617188 506.03125 L 200.007812 502.042969 C 211.980469 490.078125 227.980469 483.570312 244.933594 483.570312 L 529.109375 483.570312 L 529.109375 209.390625 L 245.675781 209.390625 L 245.675781 321.496094 L 492.132812 321.496094 L 492.132812 384.480469 L 245.675781 384.480469 C 210.605469 384.480469 182.101562 356.242188 182.101562 321.496094 L 182.101562 209.390625 C 182.101562 174.644531 210.605469 146.410156 245.675781 146.410156 L 529.109375 146.410156 C 564.179688 146.410156 592.683594 174.644531 592.683594 209.390625 L 592.683594 483.570312 C 592.683594 518.3125 564.179688 546.550781 529.109375 546.550781 Z M 529.109375 546.550781 " fill-opacity="1" fill-rule="nonzero"/></g><g clip-path="url(#9e9cafb087)"><g transform="matrix(1, 0, 0, 1, 245, 312)"><g clip-path="url(#91c6d827e6)"><g clip-path="url(#15f9a9ff82)"><path fill="#000000" d="M 0.714844 0.0546875 L 256.46875 0.0546875 L 256.46875 110.652344 L 0.714844 110.652344 Z M 0.714844 0.0546875 " fill-opacity="1" fill-rule="nonzero"/></g></g></g></g><path fill="#ffffff" d="M 357.253906 400.15625 C 342.503906 403.628906 339.6875 406.441406 336.21875 421.191406 C 332.75 406.441406 329.9375 403.628906 315.1875 400.15625 C 329.9375 396.6875 332.75 393.875 336.21875 379.125 C 339.6875 393.875 342.503906 396.6875 357.253906 400.15625 Z M 357.253906 400.15625 " fill-opacity="1" fill-rule="nonzero"/><g clip-path="url(#123adbbcdc)"><path fill="#ffffff" d="M 501.269531 345.621094 C 392.574219 350.507812 388.613281 354.46875 383.726562 463.164062 C 378.84375 354.46875 374.878906 350.507812 266.183594 345.621094 C 374.878906 340.734375 378.84375 336.773438 383.726562 228.078125 C 388.613281 336.773438 392.574219 340.734375 501.269531 345.621094 Z M 501.269531 345.621094 " fill-opacity="1" fill-rule="nonzero"/></g><path fill="#ffffff" d="M 357.1875 283.539062 C 332.914062 284.628906 332.027344 285.515625 330.9375 309.789062 C 329.847656 285.511719 328.960938 284.628906 304.6875 283.539062 C 328.960938 282.445312 329.847656 281.5625 330.9375 257.289062 C 332.027344 281.5625 332.914062 282.445312 357.1875 283.539062 Z M 357.1875 283.539062 " fill-opacity="1" fill-rule="nonzero"/><path fill="#ffffff" d="M 488.996094 281.3125 C 453.351562 282.914062 452.050781 284.214844 450.449219 319.863281 C 448.847656 284.214844 447.546875 282.917969 411.898438 281.3125 C 447.546875 279.710938 448.84375 278.414062 450.449219 242.765625 C 452.050781 278.414062 453.351562 279.710938 488.996094 281.3125 Z M 488.996094 281.3125 " fill-opacity="1" fill-rule="nonzero"/><path fill="#ffffff" d="M 488.996094 255.0625 C 479.289062 255.5 478.933594 255.851562 478.496094 265.5625 C 478.0625 255.851562 477.707031 255.5 467.996094 255.0625 C 477.707031 254.625 478.0625 254.273438 478.496094 244.5625 C 478.933594 254.273438 479.289062 254.625 488.996094 255.0625 Z M 488.996094 255.0625 " fill-opacity="1" fill-rule="nonzero"/><path fill="#ffffff" d="M 428.4375 242.765625 C 418.726562 243.203125 418.375 243.554688 417.9375 253.265625 C 417.5 243.554688 417.148438 243.203125 407.4375 242.765625 C 417.148438 242.328125 417.5 241.976562 417.9375 232.265625 C 418.375 241.976562 418.726562 242.328125 428.4375 242.765625 Z M 428.4375 242.765625 " fill-opacity="1" fill-rule="nonzero"/><g clip-path="url(#30078bf11b)"><g clip-path="url(#e82924de93)"><g transform="matrix(1, 0, 0, 1, 463, 243)"><g clip-path="url(#489d953ae2)"><g clip-path="url(#fde74048c8)"><g clip-path="url(#1d92d2669a)"><path fill="#000000" d="M 0.714844 0.957031 L 27.714844 0.957031 L 27.714844 25.554688 L 0.714844 25.554688 Z M 0.714844 0.957031 " fill-opacity="1" fill-rule="nonzero"/></g></g></g></g></g></g><g clip-path="url(#45288f40b3)"><g clip-path="url(#7866ac87b5)"><g transform="matrix(1, 0, 0, 1, 406, 231)"><g clip-path="url(#4f6f2dee49)"><g clip-path="url(#f063528712)"><g clip-path="url(#afbc0626c0)"><path fill="#000000" d="M 0.0976562 0.65625 L 27.097656 0.65625 L 27.097656 25.253906 L 0.0976562 25.253906 Z M 0.0976562 0.65625 " fill-opacity="1" fill-rule="nonzero"/></g></g></g></g></g></g><g clip-path="url(#07fa650491)"><g transform="matrix(1, 0, 0, 1, 182, 248)"><g clip-path="url(#ad28c7fc95)"><g clip-path="url(#f86cd9f0d8)"><path fill="#ffffff" d="M 0.121094 0.679688 L 63.714844 0.679688 L 63.714844 137.554688 L 0.121094 137.554688 Z M 0.121094 0.679688 " fill-opacity="1" fill-rule="nonzero"/></g></g></g></g><g clip-path="url(#37e980598d)"><g clip-path="url(#32aa21294b)"><g transform="matrix(1, 0, 0, 1, 295, 253)"><g clip-path="url(#c701516fe4)"><g clip-path="url(#edb4b2cf98)"><g clip-path="url(#b8056eda91)"><path fill="#000000" d="M 0.28125 0.921875 L 61.59375 0.921875 L 61.59375 59.054688 L 0.28125 59.054688 Z M 0.28125 0.921875 " fill-opacity="1" fill-rule="nonzero"/></g></g></g></g></g></g><g clip-path="url(#fea5f768e1)"><g clip-path="url(#e6a95f5056)"><g transform="matrix(1, 0, 0, 1, 304, 375)"><g clip-path="url(#12e443f3c1)"><g clip-path="url(#8f3585d739)"><g clip-path="url(#d842de5ec2)"><path fill="#000000" d="M 0.824219 0 L 62.136719 0 L 62.136719 58.132812 L 0.824219 58.132812 Z M 0.824219 0 " fill-opacity="1" fill-rule="nonzero"/></g></g></g></g></g></g></svg>