<svg xmlns="http://www.w3.org/2000/svg" xmlns:xlink="http://www.w3.org/1999/xlink" width="1000" zoomAndPan="magnify" viewBox="0 0 750 749.999995" height="1000" preserveAspectRatio="xMidYMid meet" version="1.0"><defs><clipPath id="255ce373f2"><path d="M 375 0 C 167.894531 0 0 167.894531 0 375 C 0 582.105469 167.894531 750 375 750 C 582.105469 750 750 582.105469 750 375 C 750 167.894531 582.105469 0 375 0 Z M 375 0 " clip-rule="nonzero"/></clipPath><clipPath id="c77381f3e2"><path d="M 0 0 L 750 0 L 750 750 L 0 750 Z M 0 0 " clip-rule="nonzero"/></clipPath><clipPath id="cb95ef62c5"><path d="M 375 0 C 167.894531 0 0 167.894531 0 375 C 0 582.105469 167.894531 750 375 750 C 582.105469 750 750 582.105469 750 375 C 750 167.894531 582.105469 0 375 0 Z M 375 0 " clip-rule="nonzero"/></clipPath><clipPath id="b910043953"><rect x="0" width="750" y="0" height="750"/></clipPath><clipPath id="8ed4c9ecd4"><path d="M 139 146.410156 L 593 146.410156 L 593 587 L 139 587 Z M 139 146.410156 " clip-rule="nonzero"/></clipPath><clipPath id="e2a3c07865"><path d="M 245.714844 312.054688 L 501.300781 312.054688 L 501.300781 422.652344 L 245.714844 422.652344 Z M 245.714844 312.054688 " clip-rule="nonzero"/></clipPath><clipPath id="ce4283d720"><path d="M 0.714844 0.0546875 L 256.300781 0.0546875 L 256.300781 110.652344 L 0.714844 110.652344 Z M 0.714844 0.0546875 " clip-rule="nonzero"/></clipPath><clipPath id="3a37cfdb05"><rect x="0" width="257" y="0" height="111"/></clipPath><clipPath id="4dc9f13e76"><path d="M 266.183594 228.078125 L 500.933594 228.078125 L 500.933594 462.828125 L 266.183594 462.828125 Z M 266.183594 228.078125 " clip-rule="nonzero"/></clipPath><clipPath id="198710a7a0"><path d="M 463.714844 243.957031 L 490.714844 243.957031 L 490.714844 268.554688 L 463.714844 268.554688 Z M 463.714844 243.957031 " clip-rule="nonzero"/></clipPath><clipPath id="f57e56ac81"><path d="M 476.015625 243.957031 L 478.414062 243.957031 C 481.675781 243.957031 484.804688 245.253906 487.113281 247.558594 C 489.417969 249.863281 490.714844 252.992188 490.714844 256.253906 C 490.714844 259.515625 489.417969 262.644531 487.113281 264.953125 C 484.804688 267.257812 481.675781 268.554688 478.414062 268.554688 L 476.015625 268.554688 C 472.753906 268.554688 469.625 267.257812 467.316406 264.953125 C 465.011719 262.644531 463.714844 259.515625 463.714844 256.253906 C 463.714844 252.992188 465.011719 249.863281 467.316406 247.558594 C 469.625 245.253906 472.753906 243.957031 476.015625 243.957031 Z M 476.015625 243.957031 " clip-rule="nonzero"/></clipPath><clipPath id="70003fa966"><path d="M 0.714844 0.957031 L 27.714844 0.957031 L 27.714844 25.554688 L 0.714844 25.554688 Z M 0.714844 0.957031 " clip-rule="nonzero"/></clipPath><clipPath id="2f1bf593e2"><path d="M 13.015625 0.957031 L 15.414062 0.957031 C 18.675781 0.957031 21.804688 2.253906 24.113281 4.558594 C 26.417969 6.863281 27.714844 9.992188 27.714844 13.253906 C 27.714844 16.515625 26.417969 19.644531 24.113281 21.953125 C 21.804688 24.257812 18.675781 25.554688 15.414062 25.554688 L 13.015625 25.554688 C 9.753906 25.554688 6.625 24.257812 4.316406 21.953125 C 2.011719 19.644531 0.714844 16.515625 0.714844 13.253906 C 0.714844 9.992188 2.011719 6.863281 4.316406 4.558594 C 6.625 2.253906 9.753906 0.957031 13.015625 0.957031 Z M 13.015625 0.957031 " clip-rule="nonzero"/></clipPath><clipPath id="882fdbdf87"><rect x="0" width="28" y="0" height="26"/></clipPath><clipPath id="e3be3a930f"><path d="M 406.097656 231.65625 L 433.097656 231.65625 L 433.097656 256.253906 L 406.097656 256.253906 Z M 406.097656 231.65625 " clip-rule="nonzero"/></clipPath><clipPath id="a94875c5c7"><path d="M 418.398438 231.65625 L 420.796875 231.65625 C 424.058594 231.65625 427.1875 232.953125 429.496094 235.257812 C 431.800781 237.566406 433.097656 240.695312 433.097656 243.957031 C 433.097656 247.21875 431.800781 250.347656 429.496094 252.652344 C 427.1875 254.960938 424.058594 256.253906 420.796875 256.253906 L 418.398438 256.253906 C 415.136719 256.253906 412.007812 254.960938 409.703125 252.652344 C 407.394531 250.347656 406.097656 247.21875 406.097656 243.957031 C 406.097656 240.695312 407.394531 237.566406 409.703125 235.257812 C 412.007812 232.953125 415.136719 231.65625 418.398438 231.65625 Z M 418.398438 231.65625 " clip-rule="nonzero"/></clipPath><clipPath id="5ea4b21bc9"><path d="M 0.0976562 0.65625 L 27.097656 0.65625 L 27.097656 25.253906 L 0.0976562 25.253906 Z M 0.0976562 0.65625 " clip-rule="nonzero"/></clipPath><clipPath id="768e8a18ff"><path d="M 12.398438 0.65625 L 14.796875 0.65625 C 18.058594 0.65625 21.1875 1.953125 23.496094 4.257812 C 25.800781 6.566406 27.097656 9.695312 27.097656 12.957031 C 27.097656 16.21875 25.800781 19.347656 23.496094 21.652344 C 21.1875 23.960938 18.058594 25.253906 14.796875 25.253906 L 12.398438 25.253906 C 9.136719 25.253906 6.007812 23.960938 3.703125 21.652344 C 1.394531 19.347656 0.0976562 16.21875 0.0976562 12.957031 C 0.0976562 9.695312 1.394531 6.566406 3.703125 4.257812 C 6.007812 1.953125 9.136719 0.65625 12.398438 0.65625 Z M 12.398438 0.65625 " clip-rule="nonzero"/></clipPath><clipPath id="583589d42c"><rect x="0" width="28" y="0" height="26"/></clipPath><clipPath id="50f94267c5"><path d="M 182.121094 248.679688 L 245.714844 248.679688 L 245.714844 385.476562 L 182.121094 385.476562 Z M 182.121094 248.679688 " clip-rule="nonzero"/></clipPath><clipPath id="cda512b2d1"><path d="M 0.121094 0.679688 L 63.714844 0.679688 L 63.714844 137.476562 L 0.121094 137.476562 Z M 0.121094 0.679688 " clip-rule="nonzero"/></clipPath><clipPath id="663319b05e"><rect x="0" width="64" y="0" height="138"/></clipPath><clipPath id="57e83af29c"><path d="M 295.28125 253.921875 L 356.59375 253.921875 L 356.59375 312.054688 L 295.28125 312.054688 Z M 295.28125 253.921875 " clip-rule="nonzero"/></clipPath><clipPath id="3305411192"><path d="M 324.347656 253.921875 L 327.464844 253.921875 C 343.515625 253.921875 356.53125 266.933594 356.53125 282.988281 C 356.53125 299.039062 343.515625 312.054688 327.464844 312.054688 L 324.347656 312.054688 C 308.296875 312.054688 295.28125 299.039062 295.28125 282.988281 C 295.28125 266.933594 308.296875 253.921875 324.347656 253.921875 Z M 324.347656 253.921875 " clip-rule="nonzero"/></clipPath><clipPath id="78fa867fb0"><path d="M 0.28125 0.921875 L 61.59375 0.921875 L 61.59375 59.054688 L 0.28125 59.054688 Z M 0.28125 0.921875 " clip-rule="nonzero"/></clipPath><clipPath id="8fd9873f42"><path d="M 29.347656 0.921875 L 32.464844 0.921875 C 48.515625 0.921875 61.53125 13.933594 61.53125 29.988281 C 61.53125 46.039062 48.515625 59.054688 32.464844 59.054688 L 29.347656 59.054688 C 13.296875 59.054688 0.28125 46.039062 0.28125 29.988281 C 0.28125 13.933594 13.296875 0.921875 29.347656 0.921875 Z M 29.347656 0.921875 " clip-rule="nonzero"/></clipPath><clipPath id="9efdf35e30"><rect x="0" width="62" y="0" height="60"/></clipPath><clipPath id="d8508f87a0"><path d="M 304.824219 375 L 366.136719 375 L 366.136719 433.132812 L 304.824219 433.132812 Z M 304.824219 375 " clip-rule="nonzero"/></clipPath><clipPath id="23d52d54bb"><path d="M 333.890625 375 L 337.003906 375 C 353.058594 375 366.070312 388.015625 366.070312 404.066406 C 366.070312 420.121094 353.058594 433.132812 337.003906 433.132812 L 333.890625 433.132812 C 317.835938 433.132812 304.824219 420.121094 304.824219 404.066406 C 304.824219 388.015625 317.835938 375 333.890625 375 Z M 333.890625 375 " clip-rule="nonzero"/></clipPath><clipPath id="44fe6b2b9e"><path d="M 0.824219 0 L 62.136719 0 L 62.136719 58.132812 L 0.824219 58.132812 Z M 0.824219 0 " clip-rule="nonzero"/></clipPath><clipPath id="a56e6a862c"><path d="M 29.890625 0 L 33.003906 0 C 49.058594 0 62.070312 13.015625 62.070312 29.066406 C 62.070312 45.121094 49.058594 58.132812 33.003906 58.132812 L 29.890625 58.132812 C 13.835938 58.132812 0.824219 45.121094 0.824219 29.066406 C 0.824219 13.015625 13.835938 0 29.890625 0 Z M 29.890625 0 " clip-rule="nonzero"/></clipPath><clipPath id="f401bafd41"><rect x="0" width="63" y="0" height="59"/></clipPath></defs><g clip-path="url(#255ce373f2)"><g transform="matrix(1, 0, 0, 1, 0, -0.000000000000042435)"><g clip-path="url(#b910043953)"><g clip-path="url(#c77381f3e2)"><g clip-path="url(#cb95ef62c5)"><rect x="-165" width="1080" fill="#000000" height="1079.999992" y="-164.999999" fill-opacity="1"/></g></g></g></g></g><g clip-path="url(#8ed4c9ecd4)"><path fill="#ffffff" d="M 529.109375 546.550781 L 248.671875 546.550781 C 246.726562 546.550781 244.894531 547.492188 243.757812 549.074219 L 217.105469 586.226562 L 139.082031 586.226562 L 196.617188 506.03125 L 200.007812 502.042969 C 211.980469 490.078125 227.980469 483.570312 244.933594 483.570312 L 529.109375 483.570312 L 529.109375 209.390625 L 245.675781 209.390625 L 245.675781 321.496094 L 492.132812 321.496094 L 492.132812 384.480469 L 245.675781 384.480469 C 210.605469 384.480469 182.101562 356.242188 182.101562 321.496094 L 182.101562 209.390625 C 182.101562 174.644531 210.605469 146.410156 245.675781 146.410156 L 529.109375 146.410156 C 564.179688 146.410156 592.683594 174.644531 592.683594 209.390625 L 592.683594 483.570312 C 592.683594 518.3125 564.179688 546.550781 529.109375 546.550781 Z M 529.109375 546.550781 " fill-opacity="1" fill-rule="nonzero"/></g><g clip-path="url(#e2a3c07865)"><g transform="matrix(1, 0, 0, 1, 245, 312)"><g clip-path="url(#3a37cfdb05)"><g clip-path="url(#ce4283d720)"><path fill="#000000" d="M 0.714844 0.0546875 L 256.46875 0.0546875 L 256.46875 110.652344 L 0.714844 110.652344 Z M 0.714844 0.0546875 " fill-opacity="1" fill-rule="nonzero"/></g></g></g></g><path fill="#ffffff" d="M 357.253906 400.15625 C 342.503906 403.628906 339.6875 406.441406 336.21875 421.191406 C 332.75 406.441406 329.9375 403.628906 315.1875 400.15625 C 329.9375 396.6875 332.75 393.875 336.21875 379.125 C 339.6875 393.875 342.503906 396.6875 357.253906 400.15625 Z M 357.253906 400.15625 " fill-opacity="1" fill-rule="nonzero"/><g clip-path="url(#4dc9f13e76)"><path fill="#ffffff" d="M 501.269531 345.621094 C 392.574219 350.507812 388.613281 354.46875 383.726562 463.164062 C 378.84375 354.46875 374.878906 350.507812 266.183594 345.621094 C 374.878906 340.734375 378.84375 336.773438 383.726562 228.078125 C 388.613281 336.773438 392.574219 340.734375 501.269531 345.621094 Z M 501.269531 345.621094 " fill-opacity="1" fill-rule="nonzero"/></g><path fill="#ffffff" d="M 357.1875 283.539062 C 332.914062 284.628906 332.027344 285.515625 330.9375 309.789062 C 329.847656 285.511719 328.960938 284.628906 304.6875 283.539062 C 328.960938 282.445312 329.847656 281.5625 330.9375 257.289062 C 332.027344 281.5625 332.914062 282.445312 357.1875 283.539062 Z M 357.1875 283.539062 " fill-opacity="1" fill-rule="nonzero"/><path fill="#ffffff" d="M 488.996094 281.3125 C 453.351562 282.914062 452.050781 284.214844 450.449219 319.863281 C 448.847656 284.214844 447.546875 282.917969 411.898438 281.3125 C 447.546875 279.710938 448.84375 278.414062 450.449219 242.765625 C 452.050781 278.414062 453.351562 279.710938 488.996094 281.3125 Z M 488.996094 281.3125 " fill-opacity="1" fill-rule="nonzero"/><path fill="#ffffff" d="M 488.996094 255.0625 C 479.289062 255.5 478.933594 255.851562 478.496094 265.5625 C 478.0625 255.851562 477.707031 255.5 467.996094 255.0625 C 477.707031 254.625 478.0625 254.273438 478.496094 244.5625 C 478.933594 254.273438 479.289062 254.625 488.996094 255.0625 Z M 488.996094 255.0625 " fill-opacity="1" fill-rule="nonzero"/><path fill="#ffffff" d="M 428.4375 242.765625 C 418.726562 243.203125 418.375 243.554688 417.9375 253.265625 C 417.5 243.554688 417.148438 243.203125 407.4375 242.765625 C 417.148438 242.328125 417.5 241.976562 417.9375 232.265625 C 418.375 241.976562 418.726562 242.328125 428.4375 242.765625 Z M 428.4375 242.765625 " fill-opacity="1" fill-rule="nonzero"/><g clip-path="url(#198710a7a0)"><g clip-path="url(#f57e56ac81)"><g transform="matrix(1, 0, 0, 1, 463, 243)"><g clip-path="url(#882fdbdf87)"><g clip-path="url(#70003fa966)"><g clip-path="url(#2f1bf593e2)"><path fill="#000000" d="M 0.714844 0.957031 L 27.714844 0.957031 L 27.714844 25.554688 L 0.714844 25.554688 Z M 0.714844 0.957031 " fill-opacity="1" fill-rule="nonzero"/></g></g></g></g></g></g><g clip-path="url(#e3be3a930f)"><g clip-path="url(#a94875c5c7)"><g transform="matrix(1, 0, 0, 1, 406, 231)"><g clip-path="url(#583589d42c)"><g clip-path="url(#5ea4b21bc9)"><g clip-path="url(#768e8a18ff)"><path fill="#000000" d="M 0.0976562 0.65625 L 27.097656 0.65625 L 27.097656 25.253906 L 0.0976562 25.253906 Z M 0.0976562 0.65625 " fill-opacity="1" fill-rule="nonzero"/></g></g></g></g></g></g><g clip-path="url(#50f94267c5)"><g transform="matrix(1, 0, 0, 1, 182, 248)"><g clip-path="url(#663319b05e)"><g clip-path="url(#cda512b2d1)"><path fill="#ffffff" d="M 0.121094 0.679688 L 63.714844 0.679688 L 63.714844 137.554688 L 0.121094 137.554688 Z M 0.121094 0.679688 " fill-opacity="1" fill-rule="nonzero"/></g></g></g></g><g clip-path="url(#57e83af29c)"><g clip-path="url(#3305411192)"><g transform="matrix(1, 0, 0, 1, 295, 253)"><g clip-path="url(#9efdf35e30)"><g clip-path="url(#78fa867fb0)"><g clip-path="url(#8fd9873f42)"><path fill="#000000" d="M 0.28125 0.921875 L 61.59375 0.921875 L 61.59375 59.054688 L 0.28125 59.054688 Z M 0.28125 0.921875 " fill-opacity="1" fill-rule="nonzero"/></g></g></g></g></g></g><g clip-path="url(#d8508f87a0)"><g clip-path="url(#23d52d54bb)"><g transform="matrix(1, 0, 0, 1, 304, 375)"><g clip-path="url(#f401bafd41)"><g clip-path="url(#44fe6b2b9e)"><g clip-path="url(#a56e6a862c)"><path fill="#000000" d="M 0.824219 0 L 62.136719 0 L 62.136719 58.132812 L 0.824219 58.132812 Z M 0.824219 0 " fill-opacity="1" fill-rule="nonzero"/></g></g></g></g></g></g></svg>