<svg width="78" height="78" viewBox="0 0 78 78" fill="none" xmlns="http://www.w3.org/2000/svg">
<g clip-path="url(#clip0_177_278)">
<g filter="url(#filter0_d_177_278)">
<circle cx="39" cy="39" r="39" fill="#F4F3F0"/>
</g>
<circle cx="34.051" cy="37.7019" r="1.3518" fill="black"/>
<circle cx="39.1721" cy="37.7019" r="1.3518" fill="black"/>
<circle cx="44.2932" cy="37.7019" r="1.3518" fill="black"/>
<path fill-rule="evenodd" clip-rule="evenodd" d="M21 25.5409C21 25.0488 21.4029 24.6499 21.9 24.6499H56.1C56.597 24.6499 57 25.0488 57 25.5409V48.7069C57 49.1989 56.597 49.5979 56.1 49.5979H34.2157L28.4622 54.1546C28.2229 54.3442 27.9026 54.4002 27.6122 54.303C27.3218 54.2059 27.1012 53.9693 27.0269 53.6749L25.9973 49.5979H21.9C21.4029 49.5979 21 49.1989 21 48.7069V25.5409ZM22.8 26.4319V47.8159H26.7C27.113 47.8159 27.473 48.094 27.5731 48.4907L28.433 51.8957L33.3378 48.0112C33.4974 47.8847 33.6956 47.8159 33.9 47.8159H55.2V26.4319H22.8Z" fill="black"/>
</g>
<defs>
<filter id="filter0_d_177_278" x="-6" y="-6" width="90" height="90" filterUnits="userSpaceOnUse" color-interpolation-filters="sRGB">
<feFlood flood-opacity="0" result="BackgroundImageFix"/>
<feColorMatrix in="SourceAlpha" type="matrix" values="0 0 0 0 0 0 0 0 0 0 0 0 0 0 0 0 0 0 127 0" result="hardAlpha"/>
<feMorphology radius="1" operator="dilate" in="SourceAlpha" result="effect1_dropShadow_177_278"/>
<feOffset/>
<feGaussianBlur stdDeviation="2.5"/>
<feComposite in2="hardAlpha" operator="out"/>
<feColorMatrix type="matrix" values="0 0 0 0 0 0 0 0 0 0 0 0 0 0 0 0 0 0 0.1 0"/>
<feBlend mode="normal" in2="BackgroundImageFix" result="effect1_dropShadow_177_278"/>
<feBlend mode="normal" in="SourceGraphic" in2="effect1_dropShadow_177_278" result="shape"/>
</filter>
<clipPath id="clip0_177_278">
<rect width="78" height="78" rx="39" fill="white"/>
</clipPath>
</defs>
</svg>
