<svg width="88" height="89" viewBox="0 0 88 89" fill="none" xmlns="http://www.w3.org/2000/svg">
<g clip-path="url(#clip0_177_271)">
<g filter="url(#filter0_d_177_271)">
<circle cx="44" cy="44" r="39" fill="#F4F3F0"/>
</g>
<path d="M62.3877 31.6123V53.3467H41.9238L41.7422 53.5391V53.54H41.7412C41.7407 53.5406 41.7403 53.5419 41.7393 53.543C41.7372 53.5452 41.7336 53.5483 41.7295 53.5527C41.7212 53.5616 41.7086 53.5746 41.6924 53.5918C41.66 53.6262 41.6129 53.6773 41.5518 53.7422C41.4294 53.8721 41.2524 54.0594 41.0361 54.2891C40.6037 54.7483 40.0121 55.3768 39.375 56.0537C38.1331 57.3732 36.7169 58.8768 35.9727 59.6709C35.9226 58.9201 35.8345 57.524 35.7578 56.2949C35.718 55.6571 35.6811 55.0647 35.6543 54.6318C35.6409 54.4154 35.6306 54.2387 35.623 54.1162C35.6193 54.0551 35.6163 54.007 35.6143 53.9746C35.6133 53.9588 35.6128 53.9467 35.6123 53.9385C35.612 53.9343 35.6115 53.9308 35.6113 53.9287V53.9258L35.5762 53.3516L35.001 53.3506L26.6123 53.3428V31.6123H62.3877Z" stroke="#771921" stroke-width="1.22449" stroke-miterlimit="10"/>
<circle cx="38.0657" cy="43.0652" r="1.6087" fill="#771921"/>
<circle cx="44.4993" cy="43.0652" r="1.6087" fill="#771921"/>
<circle cx="50.9349" cy="43.0652" r="1.6087" fill="#771921"/>
</g>
<defs>
<filter id="filter0_d_177_271" x="-1" y="-1" width="90" height="90" filterUnits="userSpaceOnUse" color-interpolation-filters="sRGB">
<feFlood flood-opacity="0" result="BackgroundImageFix"/>
<feColorMatrix in="SourceAlpha" type="matrix" values="0 0 0 0 0 0 0 0 0 0 0 0 0 0 0 0 0 0 127 0" result="hardAlpha"/>
<feMorphology radius="1" operator="dilate" in="SourceAlpha" result="effect1_dropShadow_177_271"/>
<feOffset/>
<feGaussianBlur stdDeviation="2.5"/>
<feComposite in2="hardAlpha" operator="out"/>
<feColorMatrix type="matrix" values="0 0 0 0 0 0 0 0 0 0 0 0 0 0 0 0 0 0 0.1 0"/>
<feBlend mode="normal" in2="BackgroundImageFix" result="effect1_dropShadow_177_271"/>
<feBlend mode="normal" in="SourceGraphic" in2="effect1_dropShadow_177_271" result="shape"/>
</filter>
<clipPath id="clip0_177_271">
<rect width="88" height="89" fill="white"/>
</clipPath>
</defs>
</svg>
