<?xml version="1.0" encoding="UTF-8"?>
<svg id="Layer_1" data-name="Layer 1" xmlns="http://www.w3.org/2000/svg" viewBox="0 0 59.33 59.33">
  <defs>
    <style>
      .cls-1 {
        fill: #231f20;
      }

      .cls-2 {
        fill: #262524;
      }

      .cls-3 {
        fill: #fff;
      }
    </style>
  </defs>
  <rect class="cls-2" width="59.33" height="59.33" rx="5.67" ry="5.67"/>
  <g>
    <path class="cls-3" d="M42.35,19.02h-15.46c-.55,0-.99.44-.99.99s.44.99.99.99h15.46c.43,0,.79.35.79.79v21.03l-4.26-4.29c-.19-.19-.44-.29-.7-.29h-18.72c-.43,0-.78-.35-.78-.79v-8.18c0-.55-.44-.99-.99-.99s-.99.44-.99.99v8.18c0,1.53,1.24,2.77,2.77,2.77h18.3l5.67,5.71c.19.19.45.29.7.29.13,0,.26-.02.38-.08.37-.15.61-.51.61-.92v-23.43c0-1.53-1.24-2.77-2.77-2.77Z"/>
    <path class="cls-3" d="M16.99,24.53c0,.39.32.71.71.71s.71-.32.71-.71c0-.02,0-.05,0-.07.03-2.17,1.61-3.74,3.78-3.74.39,0,.71-.32.71-.71s-.32-.71-.71-.71c-1.04,0-1.99-.37-2.68-1.04-.72-.7-1.1-1.66-1.1-2.77h0c0-.39-.32-.71-.71-.71s-.71.32-.71.71c0,.02,0,.05,0,.07-.03,2.17-1.61,3.74-3.78,3.74-.39,0-.71.32-.71.71h0c0,.4.32.71.71.71,1.04,0,1.99.37,2.68,1.04.72.7,1.1,1.66,1.1,2.77h0ZM15.9,20.01c.35-.21.68-.45.98-.74.32-.32.6-.67.82-1.06.44.75,1.05,1.36,1.8,1.8-.35.21-.68.45-.98.74-.32.32-.6.67-.82,1.06-.43-.75-1.05-1.36-1.8-1.8Z"/>
    <path class="cls-3" d="M21.03,15.75h.79v.79c0,.23.19.42.42.42s.42-.19.42-.42v-.79h.79c.23,0,.42-.19.42-.42s-.19-.42-.42-.42h-.79v-.79c0-.23-.19-.42-.42-.42s-.42.19-.42.42v.79h-.79c-.23,0-.42.19-.42.42s.19.42.42.42Z"/>
  </g>
  <rect class="cls-3" x="37.49" y="14.95" width="12.93" height="12.93" rx="2.83" ry="2.83"/>
  <path class="cls-1" d="M43.81,19.93c-.33.37-.97.65-1.5.69v-.94c.77-.11,1.46-.64,1.68-1.06h.86v5.6h-1.04v-4.29Z"/>
</svg>