<?xml version="1.0" encoding="UTF-8"?>
<svg id="Layer_1" data-name="Layer 1" xmlns="http://www.w3.org/2000/svg" viewBox="0 0 59.33 59.33">
  <defs>
    <style>
      .cls-1 {
        fill: #262524;
      }

      .cls-2 {
        fill: #fff;
      }
    </style>
  </defs>
  <rect class="cls-1" width="59.33" height="59.33" rx="5.67" ry="5.67"/>
  <g>
    <path class="cls-2" d="M44.13,46.22c-.26,0-.51-.1-.7-.29l-5.67-5.71h-18.3c-1.53,0-2.77-1.24-2.77-2.77v-8.18c0-.55.44-.99.99-.99s.99.44.99.99v8.18c0,.43.35.79.78.79h18.72c.26,0,.52.11.7.29l4.26,4.29v-21.03c0-.43-.35-.79-.78-.79h-15.46c-.55,0-.99-.44-.99-.99s.44-.99.99-.99h15.46c1.53,0,2.77,1.24,2.77,2.77v23.43c0,.4-.24.76-.61.92-.12.05-.25.08-.38.08Z"/>
    <path class="cls-2" d="M17.69,25.24c-.39,0-.71-.32-.71-.71,0-2.21-1.59-3.81-3.78-3.81-.39,0-.71-.32-.71-.71h0c0-.4.32-.71.71-.71,2.19,0,3.78-1.6,3.78-3.81,0-.39.32-.71.71-.71s.71.32.71.71c0,2.21,1.59,3.81,3.78,3.81.39,0,.71.32.71.71s-.32.71-.71.71c-2.19,0-3.78,1.6-3.78,3.81,0,.39-.32.71-.71.71ZM15.89,20.01c.75.44,1.37,1.06,1.8,1.81.44-.75,1.05-1.37,1.8-1.81-.75-.44-1.37-1.06-1.8-1.81-.44.75-1.05,1.37-1.8,1.81Z"/>
    <path class="cls-2" d="M23.46,14.9h-.79v-.79c0-.23-.19-.42-.42-.42s-.42.19-.42.42v.79h-.79c-.23,0-.42.19-.42.42s.19.42.42.42h.79v.79c0,.23.19.42.42.42s.42-.19.42-.42v-.79h.79c.23,0,.42-.19.42-.42s-.19-.42-.42-.42Z"/>
  </g>
</svg>