<svg viewBox="0 0 1990 1990" height="1990" width="1990" xmlns="http://www.w3.org/2000/svg" data-name="Layer 1" id="uuid-3fef3e66-1c53-4813-9703-3d3902d82345">
  <defs>
    <style>
      .uuid-1545b8f6-90bb-42e9-8a4d-5d461e888e78 {
        fill: #fff;
      }

      .uuid-0b093eed-8c08-4485-8077-64abe4edf64c {
        fill: #f60;
      }
    </style>
  </defs>
  <path d="M1006.17,701.48C450.55,797.15.1,1005.44,0,1166.73c0,28.82,13.14,54.34,31.12,66.93,138.44,97.01,510.6,109.91,952.77,33.76,555.64-95.7,1006.07-304.06,1006.11-465.32,0-28.78-13.16-54.28-31.16-66.9-138.52-97-510.41-109.93-952.67-33.72h0Z" class="uuid-0b093eed-8c08-4485-8077-64abe4edf64c"></path>
  <g>
    <g>
      <path d="M448.45,1098.19c19.28-17.71,29.66-41.41,29.44-66.82-.3-28.41-13.58-50.52-36.7-60.61-21.7-9.65-45.98-5.57-69.24-1.62-.42.07-70.3,13-70.3,13l2.32,258.78,38.18-7.09s-.78-88.58-.82-98.75c8.66-1.6,40.3-7.39,40.3-7.39,21.32-3.99,45.76-9.83,66.82-29.51h0ZM439.75,1035.68c.12,14.63-7.28,30.1-18.72,39.41-13.42,10.83-29.54,14.44-46.16,17.57,0,0-23.4,4.36-33.88,6.27-.1-12.92-.7-78.4-.74-87.72,7.62-1.46,34.16-6.43,34.16-6.43,13.58-2.7,27.64-5.58,39.7-2.62,16.4,3.74,25.48,15.62,25.64,33.52Z" class="uuid-1545b8f6-90bb-42e9-8a4d-5d461e888e78"></path>
      <path d="M604.46,926.03l-223.95,300.75,50.08-9.33s70.3-91.89,73.36-95.92c4.56-.84,83.26-15.39,96.7-17.88v82.33l40.24-7.52-2.46-258.75-33.96,6.32h0ZM599.9,1067.58c-7.92,1.48-44.52,8.26-64.54,11.94,13.06-18.16,47.98-66.92,63.48-88.46.36,24.68.92,68.5,1.06,76.52Z" class="uuid-1545b8f6-90bb-42e9-8a4d-5d461e888e78"></path>
      <path d="M707.3,906.94l-38.1,7.14,2.26,258.61,139.37-25.68-.28-36.19s-87.66,16.26-101.28,18.74c-.1-15.09-1.98-222.62-1.98-222.62h0Z" class="uuid-1545b8f6-90bb-42e9-8a4d-5d461e888e78"></path>
      <path d="M1039.81,845.28s-72.66,187.74-82.72,213.65c-11.66-24.61-86.5-182.18-86.5-182.18l-48.56,8.92,2.24,258.82,38.2-7.13s-1.34-145.8-1.64-191.87c19.56,42,82.78,176.94,82.78,176.94l29.72-5.5s59.48-155.13,78.5-204.63c.48,50.25,1.62,189.68,1.62,189.68l38.2-6.94-2.3-258.87-49.54,9.11h0Z" class="uuid-1545b8f6-90bb-42e9-8a4d-5d461e888e78"></path>
      <path d="M1126.03,829.4l2.18,258.75,147.42-27.39-.2-36.04s-95.54,17.61-109.3,20.2c-.14-12.55-.64-67.08-.74-76.15,10.22-1.88,105.68-19.55,105.68-19.55l-.34-36.12s-91.86,16.97-105.62,19.52c-.04-12.48-.52-65.15-.56-74.24,10.1-1.88,109.2-20.15,109.2-20.15l-.32-36.15-147.39,27.31h-.01Z" class="uuid-1545b8f6-90bb-42e9-8a4d-5d461e888e78"></path>
      <path d="M1483.51,851.27c-.26-32.29-15.96-56.73-43.08-67.23-23.02-8.65-50.72-3.52-73.16.6l-63.88,11.91,2.2,258.74,38.16-7.22s-.44-53.83-.8-99.68c22.02,19.44,151.54,134.05,151.54,134.05l46.94-8.63s-117.7-112.8-133.08-127.56c49.68-14.08,75.54-56.8,75.16-94.99h0ZM1341.82,825.52c8.34-1.49,33.12-6.07,33.12-6.07,18.12-3.38,36.66-6.81,50.86.66,11.7,5.96,19.46,19.09,19.46,33.51.18,19.62-10.3,38.24-28.16,49.72-13.82,8.84-54.68,16.31-72.12,19.56,0,0-1.22.18-2.26.4-.46-48.7-.76-92.83-.9-97.78h0Z" class="uuid-1545b8f6-90bb-42e9-8a4d-5d461e888e78"></path>
      <path d="M1706.45,849.94c-14.04-9.98-28.68-11.27-44.28-12.66l-6.2-.57c-28.6-2.63-42.2-6.12-42.4-27.33-.2-20.38,15.92-40.02,36.04-43.72,10.24-1.94,19.12-.22,25.68,4.86,6.6,5.06,10.6,13.13,11.32,23.32l.52,7.61,38.56-7.09v-5.7c.04-19.48-7.48-36.44-21.16-47.8-14.32-11.91-34.32-16.61-54.64-12.76-43.56,8.09-74.88,44.06-74.46,85.61.14,20.44,8.68,37.36,23.9,47.57,13.52,9.08,29.64,10.36,45.32,11.66,13.84.96,25.72,1.86,35.92,8.23,8.48,5.31,13.88,15.2,13.92,25.83.24,23.97-19.32,46.34-44.56,51.01-10.84,2.02-21.04-.21-28.6-6.32-7.76-6.36-12.16-16.02-12.68-27.41l-.26-7.96-39.46,7.28v5.68c0,21.25,8.04,39.76,22.74,51.9,15.7,13.07,38.18,18.09,61.62,13.75,44.16-8.19,79.8-49.46,79.36-92.11-.2-22.14-9.96-41.8-26.2-52.88h0Z" class="uuid-1545b8f6-90bb-42e9-8a4d-5d461e888e78"></path>
      <path d="M1499.83,759.85c.08,3.47.44,42.43.48,47.3,4.12-.84,20.72-4.03,20.72-4.03l.1,9.17c-1.26,7.77-6.94,13.21-17.28,16.74,0,0-1.72.58-3.08.98.02,2.87.32,24.87.36,29.07,2.2-.28,5.02-.66,5.02-.66,12.62-1.57,25.44-8.62,34.54-18.92,12.04-14.38,12.86-25.73,12.68-41.36,0,0-.4-43.06-.48-48.11-4.82.9-49.6,9.2-53.06,9.82Z" class="uuid-1545b8f6-90bb-42e9-8a4d-5d461e888e78"></path>
    </g>
    <path d="M1751.69,796.3c-.24-23.13,18.2-45.28,41.44-49.68,23.08-4.16,41.92,11.05,42.04,34.21.16,23.17-18.36,45.46-41.32,49.64-23.28,4.4-42.08-10.89-42.16-34.17ZM1827.37,782.28c-.16-18.86-15.68-31.2-34.16-27.79-19.04,3.54-34.04,21.5-33.84,40.34.08,18.95,15.4,31.45,34.32,27.9,18.64-3.45,33.8-21.61,33.68-40.45ZM1814.36,807.53l-10.32,1.86-10.28-17.24-8.72,1.62.16,19.21-9,1.58-.16-45.19,21.6-4.06c4.12-.68,9.04-1.62,12.52-.15,3.8,2.09,5.28,6.24,5.4,10.81,0,8.31-4.32,12.42-12.44,14.48l11.24,17.08h0ZM1798.25,784.54c4.8-.73,8.44-2.59,8.32-8.19-.08-6.13-6.52-4.93-10.76-4.14l-11,2.02.16,12.88,13.28-2.57h0Z" class="uuid-1545b8f6-90bb-42e9-8a4d-5d461e888e78"></path>
  </g>
</svg>