<?xml version="1.0" standalone="no"?>
<!DOCTYPE svg PUBLIC "-//W3C//DTD SVG 20010904//EN"
 "http://www.w3.org/TR/2001/REC-SVG-20010904/DTD/svg10.dtd">
<svg version="1.0" xmlns="http://www.w3.org/2000/svg"
 width="700.000000pt" height="700.000000pt" viewBox="0 0 700.000000 700.000000"
 preserveAspectRatio="xMidYMid meet">
<metadata>
Created by potrace 1.11, written by Peter Selinger 2001-2013
</metadata>
<g transform="translate(0.000000,700.000000) scale(0.100000,-0.100000)"
fill="#000000" stroke="none">
<path d="M3278 6995 c-1 -1 -39 -5 -83 -9 -89 -7 -144 -13 -225 -26 -30 -5
-75 -12 -100 -16 -47 -6 -50 -7 -90 -17 -14 -4 -74 -18 -135 -33 -316 -74
-706 -240 -1000 -425 -696 -437 -1220 -1109 -1475 -1889 -28 -87 -75 -256 -85
-311 -3 -13 -11 -58 -20 -99 -29 -147 -36 -200 -52 -370 -15 -164 -8 -592 12
-711 2 -13 6 -46 9 -74 9 -78 23 -156 51 -285 23 -107 88 -333 114 -395 5 -11
26 -65 46 -120 64 -168 249 -531 312 -610 4 -6 34 -49 65 -95 171 -256 432
-534 708 -755 92 -74 370 -265 386 -265 4 0 15 -6 23 -14 29 -25 304 -161 431
-213 269 -110 577 -194 835 -228 22 -2 56 -7 75 -10 186 -26 698 -27 838 0 16
3 104 15 147 20 178 23 499 113 735 206 136 54 413 189 463 226 17 13 35 23
39 23 5 0 14 5 21 10 7 6 62 44 124 84 253 168 489 374 676 591 33 39 63 72
67 75 4 3 44 55 90 115 152 200 284 417 388 638 23 49 42 91 42 93 0 2 11 27
24 56 57 127 151 421 182 573 17 81 54 301 59 350 4 33 9 71 11 85 9 46 11
524 4 605 -12 128 -21 202 -25 227 -3 13 -8 43 -11 68 -9 71 -71 338 -95 415
-12 39 -24 77 -25 86 -6 30 -97 264 -141 364 -213 477 -545 913 -963 1263 -68
57 -307 232 -351 257 -10 5 -49 29 -86 51 -85 52 -297 162 -383 199 -36 15
-83 35 -105 45 -119 52 -416 142 -580 175 -44 9 -89 19 -100 21 -11 2 -38 6
-60 9 -22 3 -51 7 -65 10 -13 2 -52 7 -86 11 -33 3 -74 8 -90 10 -32 5 -540
14 -546 9z m468 -1408 c5 -3 34 -8 64 -11 30 -3 66 -8 80 -11 14 -4 36 -8 50
-11 150 -29 387 -116 540 -197 92 -49 268 -163 322 -209 14 -13 44 -38 67 -56
82 -68 201 -192 287 -302 140 -178 282 -444 339 -635 10 -33 23 -78 30 -100 7
-22 18 -65 24 -95 6 -30 14 -66 16 -80 3 -14 8 -43 11 -65 3 -22 7 -51 11 -65
3 -14 7 -108 8 -210 2 -163 -9 -325 -30 -420 -3 -14 -8 -38 -10 -55 -3 -16
-15 -64 -26 -105 -202 -751 -805 -1334 -1556 -1504 -177 -40 -249 -49 -438
-51 -192 -3 -266 3 -440 35 -111 21 -130 26 -287 80 -573 194 -1037 643 -1268
1225 -40 101 -93 291 -105 380 -3 22 -8 46 -10 53 -25 73 -26 491 -1 637 114
680 511 1235 1106 1548 153 80 435 179 575 201 35 6 108 16 185 26 62 8 443 6
456 -3z"/>
</g>
</svg>
