<!--?xml version="1.0" encoding="UTF-8"?-->
<svg viewBox="0 0 425.19 29.18" xmlns="http://www.w3.org/2000/svg" id="Layer_1">
  <defs>
    <style>
      .cls-1 {
        fill: #fff;
      }
    </style>
  </defs>
  <path d="M205.46,0c-10.53,0-15.44,3.31-15.44,10.43v17.85h8.62V11.97c0-4.5,2.04-6.42,6.82-6.42s6.82,1.92,6.82,6.42v16.31h8.62V10.43C220.9,3.32,215.99,0,205.46,0Z" class="cls-1"></path>
  <path d="M171.29,29.18c10.53,0,15.44-3.31,15.44-10.43v-4.67h0v-3.64C186.73,3.32,181.82,0,171.29,0s-15.44,3.31-15.44,10.43v4.33h0v3.98c0,7.12,4.91,10.43,15.44,10.43ZM164.47,14.46v-.38h0v-2.1c0-4.5,2.04-6.42,6.82-6.42s6.81,1.92,6.81,6.42v2.79h0v2.44c0,4.5-2.04,6.42-6.82,6.42s-6.82-1.92-6.82-6.42v-2.75Z" class="cls-1"></path>
  <path d="M57.22,28.28h8.62V10.43C65.85,3.32,60.94,0,50.41,0s-15.44,3.31-15.44,10.43v17.85h8.62v-7.71h13.63v7.71ZM56.84,14.48h-13.25v-2.51c0-4.5,2.04-6.42,6.82-6.42s6.82,1.92,6.82,6.42v2.51h-.38Z" class="cls-1"></path>
  <path d="M110.08,28.28h8.62V10.43C118.7,3.12,114.36,0,104.2,0c-4.41,0-7.68.6-9.99,1.83l-.18.1-.18-.1C91.53.6,88.26,0,83.85,0c-10.17,0-14.51,3.12-14.51,10.43v17.85h8.62V11.97c0-4.86,1.43-6.42,5.88-6.42,4.05,0,5.57,1.32,5.83,5.04v17.69h8.67V10.62c.26-3.75,1.79-5.07,5.84-5.07,4.45,0,5.88,1.56,5.88,6.42v16.31Z" class="cls-1"></path>
  <path d="M294.74,14.37v.38h0v2.44c0,4.5-2.04,6.41-6.81,6.41s-6.81-1.92-6.81-6.41v-3.13h0V.87h-8.62v13.88h0v3.98c0,7.11,4.9,10.42,15.43,10.42s15.43-3.31,15.43-10.42v-4.28s0-13.58,0-13.58h-8.62v13.5Z" class="cls-1"></path>
  <path d="M341.71,0c-4.41,0-7.68.6-9.99,1.83l-.18.1-.18-.1c-2.31-1.23-5.58-1.83-9.99-1.83-10.17,0-14.51,3.12-14.51,10.43v17.85h8.62V11.97c0-4.86,1.43-6.42,5.88-6.42,4.05,0,5.57,1.32,5.84,5.04v17.69h8.67V10.62c.26-3.75,1.79-5.07,5.84-5.07,4.45,0,5.88,1.56,5.88,6.42v16.31h8.63V10.43c0-7.31-4.34-10.43-14.51-10.43Z" class="cls-1"></path>
  <path d="M379.08.87h-19.36v27.41h8.63v-6.68h11.23c9.93,0,11-7.25,11-10.37,0-6.78-3.97-10.37-11.5-10.37ZM377.11,15.68h-8.76V6.79h8.76c3.19,0,4.68,1.41,4.68,4.45s-1.49,4.45-4.68,4.45Z" class="cls-1"></path>
  <path d="M258.23.87h-19.36v27.41h8.63v-6.68h11.23c9.93,0,11-7.25,11-10.37,0-6.78-3.98-10.37-11.5-10.37ZM256.26,15.68h-8.76V6.79h8.76c3.19,0,4.68,1.41,4.68,4.45s-1.49,4.45-4.68,4.45Z" class="cls-1"></path>
  <path d="M24.4,12.27c-1.53-.26-4.5-.72-7.13-1.12-2.14-.33-4.17-.64-5.22-.81-.6-.1-2.41-.4-2.41-2.12,0-1.43.92-3.15,5.28-3.15s6.23,1.53,6.52,3.7h9.87C30.8,2.69,25.3,0,14.72,0,2.32,0,.47,5.37.47,8.58c0,4.33,2.53,6.81,7.72,7.59l9.39,1.42c3.24.51,4.79,1.07,4.79,2.91,0,1.53-.93,3.34-5.32,3.34s-6.59-1.08-6.71-4.16H0c.25,7.49,6.61,9.47,16.62,9.47,10.53,0,15.87-3.11,15.87-9.24,0-4.37-2.42-6.65-8.09-7.63Z" class="cls-1"></path>
  <path d="M137.93,23.84c-4.52,0-6.59-1.08-6.71-4.16h-10.34c.25,7.49,6.61,9.47,16.62,9.47,10.53,0,15.87-3.11,15.87-9.24,0-4.37-2.42-6.65-8.09-7.63-1.53-.26-4.5-.72-7.13-1.12-2.14-.33-4.17-.64-5.22-.81-.6-.1-2.41-.4-2.41-2.12,0-1.43.92-3.15,5.28-3.15s6.23,1.53,6.52,3.7h9.87C151.68,2.69,146.19,0,135.61,0c-12.4,0-14.26,5.37-14.26,8.57,0,4.33,2.53,6.81,7.72,7.59l9.39,1.42c3.24.51,4.79,1.07,4.79,2.91,0,1.53-.93,3.34-5.32,3.34Z" class="cls-1"></path>
  <path d="M417.1,12.27c-1.53-.26-4.5-.72-7.13-1.12-2.14-.33-4.17-.64-5.22-.81-.6-.1-2.41-.4-2.41-2.11,0-1.44.91-3.15,5.28-3.15s6.23,1.53,6.52,3.7h9.87C423.5,2.69,418,0,407.42,0c-12.4,0-14.26,5.37-14.26,8.57,0,4.33,2.53,6.81,7.72,7.59l9.39,1.42c3.24.51,4.78,1.07,4.78,2.91,0,1.53-.93,3.34-5.32,3.34s-6.59-1.08-6.71-4.16h-10.34c.24,7.49,6.61,9.47,16.62,9.47,10.53,0,15.87-3.11,15.87-9.24,0-4.37-2.42-6.65-8.09-7.63Z" class="cls-1"></path>
</svg>