<svg width="837" height="369" viewBox="0 0 837 369" fill="none" xmlns="http://www.w3.org/2000/svg">
  <g fill="#06583D">
    <path d="M208.933 334.092C205.383 334.092 202.453 336.942 202.453 340.492C202.453 342.012 202.963 343.342 203.793 344.452L220.013 365.002C221.713 367.172 223.903 368.772 227.223 368.772C230.713 368.772 234.133 366.132 234.133 362.022C234.133 359.762 233.193 358.252 231.763 356.462L221.623 344.152C229.663 340.802 234.883 334.382 234.883 323.972V323.762C234.883 317.532 232.903 312.302 229.193 308.612C224.843 304.242 218.293 301.862 209.873 301.862H186.833C182.763 301.862 179.543 305.102 179.543 309.172V361.502C179.543 365.552 182.763 368.782 186.833 368.782C190.903 368.782 194.133 365.552 194.133 361.502V315.062H208.633C215.743 315.062 220.103 318.272 220.103 324.522V324.752C220.103 330.322 216.023 334.102 208.933 334.102V334.092Z" />
    <path d="M643.643 334.092C640.063 334.092 637.153 336.942 637.153 340.492C637.153 342.012 637.673 343.342 638.503 344.452L654.723 365.002C656.453 367.172 658.623 368.772 661.923 368.772C665.443 368.772 668.833 366.132 668.833 362.022C668.833 359.762 667.873 358.252 666.463 356.462L656.323 344.152C664.393 340.802 669.603 334.382 669.603 323.972V323.762C669.603 317.532 667.583 312.302 663.903 308.612C659.553 304.242 653.013 301.862 644.573 301.862H621.553C617.463 301.862 614.243 305.102 614.243 309.172V361.502C614.243 365.552 617.453 368.782 621.553 368.782C625.653 368.782 628.843 365.552 628.843 361.502V315.062H643.353C650.473 315.062 654.803 318.272 654.803 324.522V324.752C654.803 330.322 650.743 334.102 643.633 334.102L643.643 334.092Z" />
    <path d="M307.543 302.692C311.063 303.122 313.593 306.092 313.133 309.302C312.683 312.532 309.373 314.762 305.843 314.332C301.573 313.632 296.973 313.122 292.523 313.122C285.863 313.122 277.913 314.332 277.913 320.112C277.913 324.552 283.233 326.012 291.973 327.902C302.733 330.222 316.123 333.102 316.123 347.762C316.123 360.982 304.923 368.852 286.193 368.852C280.263 368.852 274.123 368.262 267.023 367.002C263.743 366.502 261.463 363.382 261.993 360.132C262.513 356.812 265.683 354.582 268.963 355.092C274.553 356.242 279.613 357.112 284.643 357.112C289.673 357.112 301.043 356.352 301.043 349.272C301.043 343.832 294.573 342.132 286.733 340.662C285.383 340.392 284.103 340.132 283.003 339.862C273.413 337.392 263.213 333.722 263.213 320.942C263.213 308.162 273.113 301.402 290.383 301.402C297.603 301.402 303.073 302.052 307.553 302.692" />
    <path d="M1.063 358.902L24.193 306.702C25.803 303.092 28.733 300.892 32.713 300.892H33.573C37.553 300.892 40.393 303.092 42.003 306.702L65.143 358.902C65.603 359.962 65.883 360.872 65.883 361.842C65.883 365.742 62.863 368.862 58.973 368.862C55.553 368.862 53.283 366.892 51.953 363.842L47.503 353.382H18.313L13.653 364.302C12.433 367.162 9.963 368.862 6.933 368.862C3.133 368.862 0.203003 365.832 0.203003 362.022C0.203003 360.992 0.583003 359.962 1.063 358.902ZM42.093 340.492L32.903 318.632L23.703 340.492H42.093Z" />
    <path d="M87.953 358.902L111.083 306.702C112.693 303.092 115.623 300.892 119.613 300.892H120.453C124.443 300.892 127.293 303.092 128.903 306.702L152.013 358.902C152.493 359.962 152.773 360.872 152.773 361.842C152.773 365.742 149.753 368.862 145.863 368.862C142.453 368.862 140.173 366.892 138.843 363.842L134.393 353.382H105.193L100.553 364.302C99.313 367.162 96.853 368.862 93.823 368.862C90.043 368.862 87.093 365.832 87.093 362.022C87.093 360.992 87.473 359.962 87.953 358.902ZM128.993 340.492L119.813 318.632L110.613 340.492H128.993Z" />
    <path d="M352.033 315.392H338.003C334.303 315.392 331.273 312.372 331.273 308.662C331.273 304.952 334.303 301.942 338.003 301.942H380.663C384.343 301.942 387.383 304.992 387.383 308.662C387.383 312.332 384.353 315.392 380.663 315.392H366.623V361.562C366.623 365.622 363.413 368.872 359.333 368.872C355.253 368.872 352.033 365.632 352.033 361.562V315.392Z" />
    <path d="M409.523 308.652C409.523 304.602 412.753 301.372 416.843 301.372C420.933 301.372 424.153 304.602 424.153 308.652V361.552C424.153 365.612 420.923 368.862 416.843 368.862C412.763 368.862 409.523 365.622 409.523 361.552V308.652Z" />
    <path d="M454.313 309.232C454.313 305.182 457.513 301.942 461.603 301.942H477.933C498.763 301.942 513.173 316.242 513.173 334.942V335.122C513.173 353.802 498.773 368.282 477.933 368.282H461.603C457.513 368.282 454.313 365.072 454.313 361.002V309.232ZM477.933 355.112C489.863 355.112 497.903 347.042 497.903 335.292V335.112C497.903 323.362 489.863 315.102 477.933 315.102H468.853V355.112H477.933Z" />
    <path d="M536.993 309.232C536.993 305.182 540.223 301.942 544.283 301.942H581.033C584.653 301.942 587.603 304.872 587.603 308.492C587.603 312.112 584.663 314.932 581.033 314.932H551.483V328.382H576.803C580.393 328.382 583.343 331.312 583.343 334.932C583.343 338.552 580.403 341.362 576.803 341.362H551.483V355.332H581.523C585.133 355.332 588.073 358.232 588.073 361.852C588.073 365.472 585.133 368.282 581.523 368.282H544.283C540.223 368.282 536.993 365.072 536.993 361.002V309.232Z" />
    <path d="M696.913 308.852C696.913 304.772 700.113 301.562 704.223 301.562H705.723C709.243 301.562 711.313 303.262 713.303 305.842L741.443 342.792V308.582C741.443 304.612 744.673 301.382 748.673 301.382C752.673 301.382 755.843 304.612 755.843 308.582V361.382C755.843 365.462 752.613 368.672 748.553 368.672H748.103C744.553 368.672 742.473 366.962 740.493 364.412L711.323 326.122V361.662C711.323 365.622 708.093 368.862 704.093 368.862C700.093 368.862 696.923 365.622 696.923 361.662V308.852H696.913Z" />
    <path d="M785.323 309.232C785.323 305.182 788.523 301.942 792.603 301.942H829.403C832.963 301.942 835.903 304.872 835.903 308.492C835.903 312.112 832.963 314.932 829.403 314.932H799.803V328.382H825.123C828.733 328.382 831.673 331.312 831.673 334.932C831.673 338.552 828.733 341.362 825.123 341.362H799.803V355.332H829.853C833.473 355.332 836.423 358.232 836.423 361.852C836.423 365.472 833.483 368.282 829.853 368.282H792.603C788.523 368.282 785.323 365.072 785.323 361.002V309.232Z" />
    <path d="M466.463 18.3018C466.463 27.9018 458.683 35.6818 449.083 35.6818C439.483 35.6818 431.703 27.9018 431.703 18.3018C431.703 8.70175 439.483 0.921753 449.083 0.921753C458.683 0.921753 466.463 8.70175 466.463 18.3018Z" />
    <path d="M515.083 131.922C510.533 108.522 497.833 88.0318 480.053 73.5318C463.223 59.6318 441.573 51.0318 417.063 51.0418C416.983 51.0418 416.913 51.0418 416.833 51.0418C416.783 51.0418 416.733 51.0418 416.673 51.0418C416.603 51.0418 416.533 51.0418 416.463 51.0418C416.013 51.0418 415.553 51.0518 415.103 51.0618C414.333 51.0718 413.573 51.1018 412.803 51.1318C412.743 51.1318 412.683 51.1318 412.613 51.1318C410.303 51.2318 408.013 51.4018 405.743 51.6518C405.383 51.6918 405.023 51.7318 404.673 51.7718C404.383 51.8118 404.093 51.8418 403.803 51.8818C383.653 54.4618 366.013 62.8218 351.983 74.8918C335.073 89.2918 323.013 109.222 318.593 131.892C313.373 157.542 318.053 185.572 335.723 210.042C356.193 238.402 387.753 251.872 418.953 251.192C419.233 251.192 419.513 251.182 419.783 251.172C420.353 251.152 420.923 251.132 421.493 251.112C421.913 251.092 422.333 251.072 422.753 251.042C422.963 251.032 423.173 251.012 423.383 251.002C424.153 250.952 424.923 250.892 425.683 250.832C425.853 250.822 426.023 250.802 426.193 250.782C426.843 250.722 427.483 250.652 428.133 250.582C428.463 250.542 428.793 250.512 429.123 250.472C429.453 250.432 429.793 250.392 430.123 250.342C430.773 250.252 431.423 250.172 432.073 250.072C432.083 250.072 432.093 250.072 432.103 250.072C461.253 245.662 488.633 228.712 504.573 199.822C516.763 177.732 519.553 153.902 515.083 131.932V131.922ZM363.143 139.602C367.813 119.872 385.713 104.712 405.863 102.812C416.663 101.792 425.773 105.522 434.933 110.752C442.243 98.5218 459.953 102.232 461.553 116.462C463.293 131.932 457.993 168.142 463.943 180.072C466.493 185.182 474.453 187.462 473.073 193.902C470.403 206.302 446.743 194.412 441.553 188.912C436.243 192.242 431.053 195.772 424.943 197.612C388.463 208.572 354.343 176.712 363.133 139.612L363.143 139.602Z" />
    <path d="M415.753 177.302C449.383 173.652 444.643 120.152 408.523 125.092C375.593 129.602 380.893 181.092 415.753 177.302Z" />
  </g>
</svg>
