<svg viewBox="0 0 145.98 45.55" xmlns="http://www.w3.org/2000/svg" id="Layer_2">
  <defs>
    <style>
      .cls-1 {
        fill: #898a8d;
      }

      .cls-2 {
        fill: #f18a00;
      }
    </style>
  </defs>
  <g data-name="Layer_1" id="Layer_1-2">
    <g>
      <g>
        <path d="M36.39,21.72h-2.82L21.31,5.15v16.57h-2.82V.31h2.82l12.26,16.6V.31h2.82v21.41Z" class="cls-1"></path>
        <path d="M48.29,12.57v-3.13c0-3.12.78-5.48,2.34-7.06,1.56-1.58,3.77-2.37,6.62-2.37s5.02.79,6.56,2.37c1.54,1.58,2.31,3.94,2.31,7.06v3.13c0,3.12-.78,5.48-2.34,7.06-1.56,1.58-3.77,2.37-6.62,2.37s-5.02-.79-6.56-2.37c-1.54-1.58-2.31-3.93-2.31-7.06ZM63.34,12.6v-3.01c0-2.42-.51-4.2-1.52-5.34-1.01-1.14-2.54-1.71-4.59-1.71s-3.61.57-4.61,1.71c-1,1.14-1.5,2.92-1.5,5.34v3.01c0,2.34.5,4.06,1.5,5.18,1,1.12,2.54,1.67,4.61,1.67s3.58-.56,4.59-1.67c1.01-1.12,1.52-2.84,1.52-5.18Z" class="cls-1"></path>
        <path d="M80.79,12.6v9.12h-2.82V.31h9.34c2.36,0,4.16.53,5.41,1.58,1.25,1.05,1.88,2.57,1.88,4.56,0,1.55-.4,2.83-1.19,3.83-.8,1-1.96,1.68-3.49,2.03l5.31,9.4h-3.23l-4.99-9.12h-6.2ZM87.37,10.15c1.51,0,2.62-.3,3.34-.9.71-.6,1.07-1.53,1.07-2.79s-.38-2.16-1.13-2.75c-.76-.59-1.91-.88-3.46-.88h-6.39v7.32h6.58Z" class="cls-1"></path>
        <path d="M127.5,21.72h-2.79V5.52l-6.8,11.95h-1.99l-6.79-11.95v16.2h-2.82V.31h2.82l7.79,13.9L124.71.31h2.79v21.41Z" class="cls-1"></path>
      </g>
      <g>
        <path d="M4.74,33.18c1.47,0,2.64.38,3.5,1.14.86.76,1.3,1.96,1.3,3.59v2.9c0,1.64-.43,2.84-1.3,3.59-.86.76-2.03,1.14-3.5,1.14H0v-12.37h4.74ZM8.05,40.89v-2.92c0-1.25-.28-2.17-.85-2.74-.57-.57-1.38-.86-2.44-.86H1.49v10h3.27c2.2,0,3.29-1.16,3.29-3.48Z" class="cls-2"></path>
        <path d="M23.98,38.67h5.94v1.18h-5.94v4.52h6.95v1.18h-8.41v-12.37h8.41v1.18h-6.95v4.3Z" class="cls-2"></path>
        <path d="M53.63,45.55h-1.47l-7.17-9.97v9.97h-1.47v-12.37h1.47l7.17,9.93v-9.93h1.47v12.37Z" class="cls-2"></path>
        <path d="M78.8,45.55h-1.47v-9.68l-3.92,7.21h-1.12l-3.94-7.21v9.68h-1.47v-12.37h1.47l4.5,8.34,4.48-8.34h1.47v12.37Z" class="cls-2"></path>
        <path d="M93.29,42.58l-1.16,2.98h-1.55l5.04-12.37h1.23l5.04,12.37h-1.55l-1.16-2.98h-5.88ZM96.22,35.01l-2.51,6.45h5.04l-2.53-6.45Z" class="cls-2"></path>
        <path d="M115.14,40.12v5.43h-1.47v-12.37h5.14c1.3,0,2.32.3,3.06.91.74.6,1.11,1.46,1.11,2.57,0,.88-.26,1.61-.78,2.19-.52.57-1.25.96-2.19,1.15l3.27,5.56h-1.69l-3.13-5.43h-3.33ZM118.69,38.99c.9,0,1.59-.2,2.09-.6.5-.4.74-.97.74-1.71s-.24-1.34-.73-1.73c-.49-.39-1.19-.58-2.1-.58h-3.55v4.63h3.55Z" class="cls-2"></path>
        <path d="M137.21,42.15v3.41h-1.47v-12.37h1.47v7.21l6.41-7.21h1.75l-4.38,4.82,5,7.55h-1.71l-4.24-6.53-2.83,3.12Z" class="cls-2"></path>
      </g>
    </g>
  </g>
</svg>