<?xml version="1.0" encoding="utf-8"?>
<!-- Generator: Adobe Illustrator 28.0.0, SVG Export Plug-In . SVG Version: 6.00 Build 0)  -->
<svg version="1.1" id="Layer_1" xmlns="http://www.w3.org/2000/svg" xmlns:xlink="http://www.w3.org/1999/xlink" x="0px" y="0px"
	 viewBox="0 0 214.1 102.8" style="enable-background:new 0 0 214.1 102.8;" xml:space="preserve">
<style type="text/css">
	.st0{fill:#D2232A;}
	.st1{fill:#3D4356;}
	.st2{fill:#21ADC8;}
	.st3{fill:#FFFFFF;}
</style>
<path id="Path_195" class="st0" d="M16.3,76.7H214V60.3H12.5L16.3,76.7z"/>
<g id="Group_14_1_" transform="translate(0.098 0.092)">
	<path id="Path_90_1_" class="st1" d="M49.1,6.5c0,1.5,0,3-0.1,4.4s-0.1,2.9-0.2,4.3c-0.2,2.8-0.6,5.6-1.3,8.3
		c-0.3,1.3-0.7,2.6-1.3,3.8c-0.5,1.2-1.1,2.3-1.8,3.3C43.8,31.5,43,32.3,42,33c-0.4,0.3-0.9,0.6-1.4,0.8s-1,0.3-1.5,0.4
		c-0.3,0-0.5,0.1-0.8,0.1s-0.5,0-0.8,0s-0.5,0-0.8-0.1c-0.3,0-0.6-0.1-0.8-0.2c-1.2-0.3-2.3-0.7-3.3-1.4c-0.6-0.3-1.1-0.7-1.6-1
		c-0.5-0.4-1-0.8-1.5-1.2c-1-0.9-2-1.8-2.9-2.8s-1.8-2.1-2.7-3.2s-1.7-2.3-2.5-3.5s-1.5-2.4-2.3-3.6s-1.5-2.5-2.2-3.8h-0.1
		c0.3,1.5,0.6,2.9,1,4.3s0.9,2.8,1.4,4.2c1.1,2.8,2.5,5.5,4.2,8c0.9,1.3,1.9,2.5,3,3.6c0.5,0.6,1.1,1.1,1.7,1.6s1.3,1,1.9,1.4
		c0.7,0.5,1.4,0.9,2.1,1.2c0.8,0.4,1.6,0.7,2.4,0.9c0.4,0.1,0.8,0.2,1.3,0.3s0.9,0.1,1.3,0.2c0.9,0.1,1.8,0,2.7-0.1
		c1.8-0.3,3.5-1,5-2.1c0.7-0.5,1.4-1.1,2-1.8c0.6-0.6,1.1-1.3,1.6-2c0.9-1.4,1.6-2.9,2.1-4.5c0.5-1.5,0.8-3.1,1-4.6s0.3-3.1,0.2-4.6
		c0-1.5-0.1-3-0.4-4.5c-0.2-1.5-0.5-3-0.9-4.4C50.1,9.2,49.7,7.8,49.1,6.5L49.1,6.5z"/>
	<path id="Path_92_1_" class="st1" d="M49.4,5.8c0.2-0.1,0.3-0.1,0.5-0.2s0.3-0.1,0.5-0.2c0.3-0.1,0.6-0.2,0.9-0.3
		c0.5-0.2,1.1-0.3,1.6-0.4s1-0.3,1.6-0.5C54.7,4.1,54.9,4,55.2,4L56,3.7c1.1-0.3,2.3-0.7,3.4-1.1c0.6-0.2,1.2-0.4,1.8-0.7
		c0.3-0.1,0.6-0.3,0.9-0.4C62.4,1.3,62.7,1.2,63,1V0.9c-0.3-0.1-0.6-0.3-1-0.3c-0.3-0.1-0.6-0.2-1-0.2c-1.9-0.4-3.9-0.4-5.8,0
		c-0.3,0.1-0.7,0.1-1,0.2s-0.7,0.2-1,0.3s-0.6,0.3-0.9,0.4c-0.3,0.2-0.6,0.4-0.9,0.6c-0.6,0.5-1.1,1-1.5,1.7
		c-0.2,0.3-0.4,0.7-0.5,1.1c-0.1,0.2-0.1,0.4-0.1,0.6s0,0.4,0,0.6L49.4,5.8z"/>
	<path id="Path_94_1_" class="st1" d="M16.8,13.1c-0.1-0.2-0.2-0.4-0.3-0.6c-0.1-0.2-0.2-0.4-0.4-0.5c-0.3-0.3-0.6-0.6-1-0.9
		c-0.7-0.5-1.5-0.8-2.3-1C12.4,10,12,10,11.6,9.9c-0.4,0-0.8,0-1.2,0S9.6,10,9.2,10s-0.8,0.1-1.1,0.2c-1.5,0.3-2.9,0.8-4.3,1.5
		c-0.7,0.3-1.3,0.7-2,1.1c-0.3,0.2-0.6,0.4-0.9,0.7C0.6,13.7,0.3,14,0,14.3v0.1c0.4,0,0.8,0,1.2,0s0.8,0,1.1,0
		c0.7,0,1.5-0.1,2.2-0.2c1.5,0,2.9-0.2,4.2-0.4l1-0.1l1-0.1l1.9-0.2c0.6-0.1,1.3-0.1,1.9-0.2c0.3,0,0.7,0,1,0c0.2,0,0.4,0,0.6,0
		C16.3,13.2,16.6,13.2,16.8,13.1L16.8,13.1z"/>
	<path class="st1" d="M51.8,102.7c-0.2,0-0.4,0-0.6,0c-0.6-0.1-1.2-0.2-1.7-0.5c-0.4-0.2-0.9-0.4-1.3-0.7c-0.3-0.2-0.7-0.5-1-0.8
		c-0.5-0.5-1-1.1-1.4-1.6S45,98,44.7,97.5c-0.6-1.1-1.1-2.2-1.6-3.3c-0.5-1.2-0.9-2.3-1.2-3.3c-0.4-1.1-0.7-2.3-0.9-3.3
		c-0.1-0.4-0.2-0.8-0.3-1.2L40.6,86c-0.1-0.6-0.2-1.1-0.3-1.7c-0.2-1-0.4-2-0.6-3.3c-0.1-1-0.3-2.1-0.4-3.3
		c-0.1-0.8-0.2-1.7-0.2-2.6L39,74.3c-0.1-1-0.2-2.1-0.2-3.3c-0.1-2.3-0.1-4.5-0.1-6.6c0-1,0-2.1,0.1-3.3c0-0.9,0.1-1.7,0.1-2.5v-0.8
		c0.1-2.4,0.3-4.6,0.5-6.6v-0.1h0.2v0.1c0.1,0.8,0.2,1.6,0.3,2.5c0.1,1.3,0.3,2.7,0.5,4c0.1,1.1,0.3,2.2,0.4,3.2V61
		c0.1,1,0.3,2.1,0.4,3.1c0.7,4.9,1.5,8.9,2.3,12.7C44,78,44.2,79,44.4,80c0.2,0.9,0.5,2,0.8,3c0.1,0.4,0.3,0.9,0.5,1.5
		c0.2,0.5,0.3,1,0.5,1.5l0,0c0.3,0.9,0.7,1.9,1.1,2.9c0.4,1,0.8,1.9,1.2,2.7c0.4,0.8,0.9,1.7,1.4,2.4c0.3,0.4,0.5,0.7,0.8,1
		c0.2,0.2,0.3,0.3,0.5,0.5c0.1-0.3,0.2-0.7,0.3-1c0.1-0.4,0.2-0.8,0.2-1.3c0.1-0.9,0.2-1.9,0.1-2.8c0-0.9-0.1-1.8-0.1-3
		c-0.1-1-0.2-2-0.3-3c-0.1-0.9-0.3-2-0.5-3s-0.4-2-0.6-3v-0.2c-0.2-0.9-0.4-1.9-0.7-2.8c-0.5-2-1.1-4-1.7-6c-0.6-2-1.3-4-2-6
		c-0.3-0.9-0.7-1.9-1.1-3c-0.1-0.2-0.1-0.3-0.2-0.5l-0.1-0.3c-0.1-0.3-0.2-0.5-0.3-0.8c-0.2-0.5-0.3-1.1-0.4-1.6
		c-0.2-1.1-0.2-2.3-0.1-3.4c0.1-0.6,0.2-1.3,0.3-1.9c0-0.1,0-0.2,0.1-0.2v-0.1c0-0.1,0-0.1,0-0.2c0-0.2,0.1-0.3,0.1-0.5l0,0
		c0.5-0.6,1.4-0.9,2.1-0.5c0.1,0,0.2,0.1,0.2,0.1l0.2,0.1c0.6,0.3,1.1,0.7,1.6,1.1c1.4,1.1,2.4,2.5,3.2,4.1c0.1,0.2,0.2,0.4,0.3,0.7
		v0.1c0.1,0.3,0.2,0.5,0.3,0.8c0.4,1,0.8,2.1,1.1,3.1c1.5,4.2,2.8,8.6,3.8,12.9c0.2,1,0.5,2.2,0.7,3.3c0,0.3,0.1,0.5,0.1,0.8
		c0.1,0.3,0.1,0.6,0.2,0.9c0.1,0.5,0.2,1.1,0.3,1.7c0.2,1.2,0.3,2.3,0.4,3.4c0.1,1.2,0.2,2.4,0.2,3.5c0,1.2,0,2.4,0,3.6
		c-0.1,1.2-0.2,2.5-0.4,3.7c-0.1,0.6-0.2,1.2-0.4,1.9c-0.2,0.7-0.4,1.4-0.7,2.1c-0.2,0.4-0.4,0.7-0.6,1.1c-0.2,0.4-0.5,0.8-0.8,1.1
		c-0.4,0.4-0.8,0.8-1.2,1.1c-0.5,0.4-1.1,0.7-1.8,0.8C52.8,102.7,52.3,102.7,51.8,102.7z M39.6,51.6c-0.2,1.9-0.4,3.9-0.5,6.1v0.8
		c0,0.8-0.1,1.7-0.1,2.5c0,1.2-0.1,2.2-0.1,3.3c0,2.1,0,4.3,0.1,6.6c0,1.2,0.1,2.3,0.2,3.3l0.1,0.8c0.1,0.8,0.1,1.7,0.2,2.5
		c0.1,1.3,0.3,2.3,0.4,3.3c0.2,1.3,0.4,2.3,0.6,3.3c0.1,0.5,0.2,1.1,0.3,1.7l0.1,0.4c0.1,0.4,0.2,0.8,0.3,1.2c0.2,1,0.5,2.2,0.9,3.3
		c0.3,1,0.7,2.1,1.2,3.3c0.5,1.1,1,2.2,1.6,3.3c0.3,0.6,0.7,1.1,1.1,1.6c0.4,0.6,0.9,1.1,1.4,1.6c0.3,0.3,0.6,0.5,1,0.8
		s0.8,0.5,1.2,0.7c0.5,0.2,1.1,0.4,1.6,0.4c0.6,0.1,1.3,0,1.9-0.1c0.6-0.2,1.2-0.4,1.7-0.8c0.4-0.3,0.8-0.7,1.2-1.1
		c0.3-0.4,0.6-0.7,0.8-1.1c0.2-0.3,0.4-0.7,0.6-1.1c0.3-0.7,0.5-1.3,0.7-2s0.3-1.3,0.4-1.9c0.2-1.2,0.3-2.5,0.4-3.7
		c0.1-1.2,0.1-2.4,0-3.6c0-1.1-0.1-2.3-0.2-3.5c-0.1-1.1-0.2-2.2-0.4-3.4c-0.1-0.6-0.2-1.2-0.3-1.7c0-0.3-0.1-0.6-0.2-0.9
		c-0.1-0.3-0.1-0.6-0.1-0.8c-0.2-1.2-0.5-2.3-0.7-3.3c-1-4.3-2.3-8.7-3.8-12.9c-0.4-1.1-0.8-2.2-1.1-3.1c-0.1-0.2-0.2-0.5-0.3-0.8
		v-0.1c-0.1-0.2-0.2-0.4-0.3-0.6c-0.8-1.6-1.8-2.9-3.1-4c-0.5-0.4-1-0.8-1.6-1.1l-0.2-0.1c-0.1,0-0.1-0.1-0.2-0.1
		c-0.7-0.3-1.5-0.1-1.9,0.4c-0.1,0.2-0.1,0.3-0.1,0.5c0,0.1,0,0.1-0.1,0.2v0.1c0,0.1,0,0.2-0.1,0.2c-0.1,0.6-0.2,1.3-0.3,1.9
		c-0.1,1.1,0,2.3,0.1,3.4c0.1,0.5,0.2,1,0.4,1.6c0.1,0.2,0.2,0.5,0.2,0.7l0.1,0.3c0.1,0.2,0.1,0.3,0.2,0.5c0.4,1.1,0.8,2.1,1.1,3
		c0.7,2,1.4,4,2,6c0.7,2.1,1.2,4.1,1.7,6.1c0.2,0.9,0.5,1.9,0.7,2.8v0.2c0.2,1,0.4,2,0.6,3c0.2,1.1,0.4,2.1,0.5,3c0.1,1,0.3,2,0.3,3
		c0.1,1.1,0.1,2.1,0.1,3s0,1.9-0.1,2.8c0,0.4-0.1,0.9-0.2,1.3c-0.1,0.4-0.2,0.7-0.3,1.1l0,0l0.1,0.1c0.1,0.1,0.2,0.1,0.3,0.2l0,0
		c0.3,0,0.3,0,0.3,0.1v0.1l0,0l0,0c-0.1,0-0.1,0-0.2-0.1c-0.1,0-0.2,0-0.3,0s-0.2,0.1-0.3,0.1s-0.1,0.1-0.2,0v-0.1
		c0.1-0.1,0.1-0.3,0.2-0.4c-0.2-0.2-0.4-0.4-0.6-0.6c-0.2-0.3-0.5-0.6-0.8-1c-0.5-0.8-1-1.6-1.4-2.5c-0.4-0.8-0.8-1.8-1.3-2.7
		c-0.4-1-0.8-1.9-1.1-2.9l0,0c-0.2-0.5-0.3-1-0.5-1.5c-0.2-0.6-0.3-1.1-0.5-1.5c-0.3-1.1-0.6-2.1-0.8-3.1c-0.2-0.9-0.5-2-0.8-3.1
		c-0.9-3.8-1.6-7.8-2.3-12.7c-0.2-1-0.3-2.1-0.4-3.1v-0.1c-0.1-1.1-0.3-2.2-0.4-3.2c-0.2-1.3-0.3-2.7-0.5-4.1
		C39.8,53,39.7,52.3,39.6,51.6z M51.3,95.8c0,0.1-0.1,0.1-0.1,0.2c0.1,0,0.1,0,0.2,0c0,0,0,0,0.1,0C51.5,95.9,51.4,95.9,51.3,95.8
		C51.4,95.9,51.4,95.9,51.3,95.8z"/>
	<path id="Path_98_1_" class="st1" d="M15.8,40.5c-0.1,0.2-0.1,0.4-0.2,0.5l-0.1,0.3c0,0.1-0.1,0.2-0.1,0.3c-0.1,0.6-0.3,1.3-0.3,2
		c-0.1,1.7,0,3.5,0.5,5.2c0.1,0.3,0.2,0.5,0.3,0.8s0.2,0.5,0.3,0.8c0.4,1,0.8,2.1,1.1,3.1c0.7,2.1,1.5,4.1,2.1,6.2s1.3,4.2,1.8,6.3
		c0.3,1,0.5,2.1,0.8,3.1s0.5,2.1,0.7,3.1s0.4,2.1,0.5,3.2s0.3,2.1,0.3,3.1s0.1,2.1,0.1,3.1s0,1.9-0.1,2.9c0,0.4-0.1,0.9-0.2,1.3
		s-0.2,0.7-0.3,1.1c-0.1,0.2-0.2,0.4-0.3,0.6l0,0c0.1-0.1,0.2-0.1,0.3-0.1c0.1,0,0.3,0,0.4,0s0.1,0,0.1,0.1
		c-0.2-0.1-0.3-0.1-0.5-0.3c-0.3-0.2-0.5-0.5-0.8-0.8s-0.6-0.7-0.8-1.1c-0.6-0.8-1-1.7-1.5-2.5c-0.5-0.9-0.9-1.9-1.3-2.8
		s-0.8-2-1.1-3c-0.2-0.5-0.3-1-0.5-1.5s-0.3-1-0.5-1.6c-0.3-1-0.6-2.1-0.9-3.2c-0.3-1.1-0.5-2.1-0.8-3.2c-1-4.3-1.8-8.7-2.4-13.2
		c-0.2-1.1-0.3-2.2-0.5-3.3s-0.3-2.2-0.4-3.4c-0.3-2.2-0.5-4.5-0.8-6.7h-0.1c-0.3,2.3-0.4,4.5-0.6,6.8c-0.1,1.1-0.1,2.3-0.1,3.4
		s-0.1,2.3-0.1,3.4c0,2.3,0,4.6,0.1,6.8c0.1,1.1,0.1,2.3,0.2,3.4s0.2,2.3,0.3,3.4s0.3,2.3,0.4,3.4s0.4,2.3,0.6,3.4
		c0.1,0.6,0.2,1.1,0.3,1.7s0.3,1.1,0.4,1.7c0.3,1.1,0.6,2.3,0.9,3.4s0.7,2.3,1.2,3.4c0.5,1.2,1,2.3,1.7,3.4c0.3,0.6,0.7,1.2,1.1,1.7
		c0.4,0.6,0.9,1.2,1.5,1.7c0.3,0.3,0.7,0.6,1,0.8c0.4,0.3,0.8,0.5,1.3,0.7s1.1,0.4,1.7,0.5c0.7,0.1,1.4,0,2-0.1
		c0.6-0.2,1.3-0.5,1.8-0.8s0.9-0.7,1.3-1.1c0.3-0.4,0.6-0.8,0.9-1.2c0.2-0.4,0.4-0.7,0.6-1.1c0.3-0.7,0.6-1.4,0.8-2.1
		c0.2-0.7,0.3-1.3,0.5-2c0.2-1.3,0.3-2.6,0.4-3.8c0.1-1.3,0.1-2.5,0-3.7s-0.1-2.4-0.3-3.6S30.2,72,30,70.9c-0.1-0.6-0.2-1.2-0.3-1.7
		s-0.2-1.2-0.3-1.7c-0.2-1.2-0.5-2.3-0.7-3.4c-1.1-4.5-2.4-9-4-13.4c-0.4-1.1-0.8-2.2-1.2-3.2l-0.3-0.8c-0.1-0.3-0.2-0.5-0.3-0.8
		c-0.3-0.5-0.5-1-0.9-1.5c-0.7-1-1.5-1.9-2.4-2.7c-0.5-0.4-1.1-0.8-1.6-1.1c-0.1,0-0.1-0.1-0.2-0.1s-0.2-0.1-0.2-0.1
		C17.1,39.6,16.3,39.8,15.8,40.5"/>
	<g id="Group_15_1_">
		<path class="st1" d="M38.1,39.4c-0.3,0-0.6,0-0.9,0c-0.5,0-0.9-0.1-1.3-0.2c-0.4-0.1-0.8-0.2-1.3-0.3c-0.8-0.2-1.6-0.5-2.4-0.9
			c-0.7-0.4-1.5-0.8-2.2-1.2s-1.3-0.9-1.9-1.4s-1.2-1.1-1.7-1.6c-1.1-1.1-2.1-2.3-3-3.6c-1.7-2.5-3.2-5.2-4.2-8
			c-0.5-1.4-1-2.8-1.4-4.2s-0.7-2.9-1-4.3v-0.1l0.2-0.1v0.1c0.3,0.5,0.6,1.1,0.9,1.6c0.4,0.7,0.8,1.5,1.3,2.2
			c0.8,1.3,1.5,2.5,2.3,3.6c0.8,1.2,1.6,2.3,2.4,3.5c0.9,1.1,1.8,2.2,2.6,3.2c0.9,1,1.9,1.9,2.9,2.8c0.6,0.5,1.1,0.9,1.5,1.2
			c0.5,0.4,1.1,0.7,1.6,1c1,0.6,2.1,1.1,3.3,1.3c0.3,0.1,0.5,0.1,0.8,0.2c0.3,0,0.5,0.1,0.8,0.1s0.5,0,0.8,0s0.5,0,0.8-0.1
			c0.5-0.1,1-0.2,1.5-0.4s1-0.5,1.4-0.8c0.9-0.7,1.8-1.5,2.4-2.4c0.7-1,1.3-2.1,1.8-3.3c0.5-1.2,0.9-2.5,1.3-3.8
			c0.7-2.7,1.1-5.5,1.3-8.3c0.1-1.3,0.2-2.7,0.2-4.3c0-1,0-1.9,0-2.9c0-0.5,0-1,0-1.5V6.4h0.2v0.1c0.5,1.4,1,2.8,1.3,4.2
			c0.4,1.4,0.7,2.9,0.9,4.4s0.3,3,0.4,4.5c0,1.5-0.1,3.1-0.2,4.6c-0.2,1.6-0.5,3.1-1,4.6c-0.5,1.6-1.2,3.1-2.1,4.5
			c-0.5,0.7-1,1.4-1.6,2c-0.6,0.7-1.3,1.2-2,1.8c-1.5,1.1-3.2,1.8-5,2.1C39.3,39.3,38.7,39.4,38.1,39.4z M17,13.8
			c0.2,1.4,0.6,2.7,1,4.1s0.9,2.8,1.4,4.2c1.1,2.8,2.5,5.5,4.2,8c0.9,1.3,1.9,2.5,2.9,3.6c0.5,0.5,1.1,1.1,1.7,1.6s1.3,1,1.9,1.4
			c0.7,0.4,1.4,0.9,2.1,1.2c0.8,0.4,1.6,0.7,2.4,0.9c0.5,0.1,0.9,0.2,1.3,0.3c0.4,0.1,0.8,0.1,1.3,0.2c0.9,0.1,1.8,0,2.7-0.1
			c1.8-0.3,3.5-1,4.9-2c0.7-0.5,1.4-1.1,2-1.7c0.6-0.6,1.1-1.3,1.6-2c0.9-1.4,1.6-2.9,2.1-4.4s0.8-3,1-4.6c0.2-1.5,0.3-3.1,0.2-4.6
			c0-1.5-0.1-3-0.4-4.5c-0.2-1.5-0.5-2.9-0.9-4.4c-0.3-1.3-0.7-2.6-1.2-3.9c0,0.4,0,0.8,0,1.1c0,1,0,2,0,2.9c0,1.6-0.1,3-0.2,4.3
			c-0.2,2.8-0.6,5.6-1.3,8.3c-0.3,1.3-0.8,2.6-1.3,3.8c-0.5,1.2-1.1,2.3-1.8,3.3s-1.5,1.8-2.5,2.5c-0.4,0.3-0.9,0.6-1.4,0.8
			s-1,0.3-1.5,0.4c-0.3,0-0.5,0.1-0.8,0.1s-0.5,0-0.8,0s-0.6,0-0.8-0.1c-0.3,0-0.6-0.1-0.8-0.2c-1.2-0.3-2.3-0.8-3.3-1.4
			c-0.6-0.3-1.1-0.7-1.6-1s-1-0.7-1.6-1.2c-1-0.9-2-1.8-2.9-2.8s-1.8-2.1-2.7-3.2c-0.9-1.1-1.7-2.3-2.5-3.5
			c-0.7-1.1-1.5-2.3-2.3-3.7c-0.4-0.7-0.8-1.4-1.3-2.2C17.5,14.7,17.2,14.3,17,13.8z"/>
		<path class="st1" d="M49.5,5.9h-0.2V5.8c0-0.2,0-0.4,0-0.6s0.1-0.4,0.1-0.6c0.1-0.4,0.3-0.7,0.5-1.1c0.4-0.7,0.9-1.2,1.5-1.7
			c0.3-0.2,0.6-0.4,0.9-0.6c0.3-0.2,0.6-0.3,1-0.4c0.3-0.1,0.6-0.2,1-0.3s0.7-0.2,1-0.2c2-0.4,3.9-0.4,5.9,0c0.3,0.1,0.6,0.1,1,0.2
			c0.3,0.1,0.7,0.2,1,0.4l0,0v0.2l0,0c-0.3,0.2-0.6,0.4-0.9,0.5C62,1.8,61.7,1.9,61.4,2c-0.6,0.3-1.2,0.5-1.8,0.7
			c-1.1,0.4-2.3,0.8-3.4,1.1l-1,0.2c-0.1,0-0.3,0.1-0.4,0.1c-0.1,0-0.3,0.1-0.4,0.1c-0.5,0.2-1,0.3-1.6,0.5c-0.1,0-0.3,0.1-0.4,0.1
			C52,4.9,51.6,5,51.2,5.1c-0.3,0.1-0.5,0.2-0.8,0.3h-0.1c-0.1,0-0.2,0.1-0.3,0.1l-0.1,0.1C49.8,5.7,49.6,5.8,49.5,5.9L49.5,5.9z
			 M49.4,5.7L49.4,5.7c0.2-0.1,0.3-0.1,0.5-0.2L50,5.4c0.1,0,0.2-0.1,0.4-0.1h0.1C50.7,5.2,51,5.1,51.2,5c0.4-0.1,0.8-0.2,1.2-0.3
			c0.1,0,0.3-0.1,0.4-0.1c0.6-0.2,1.1-0.3,1.6-0.5c0.1,0,0.3-0.1,0.4-0.1c0.1,0,0.3-0.1,0.4-0.1L56,3.6c1.2-0.4,2.3-0.7,3.4-1.1
			c0.6-0.2,1.1-0.4,1.8-0.7c0.3-0.1,0.6-0.3,0.9-0.4c0.3-0.1,0.5-0.3,0.8-0.4c-0.3-0.1-0.6-0.2-0.9-0.3c-0.3-0.1-0.7-0.2-1-0.2
			c-1.9-0.4-3.9-0.4-5.8,0c-0.3,0.1-0.6,0.1-1,0.2s-0.7,0.2-1,0.3s-0.6,0.3-0.9,0.4C52,1.6,51.7,1.8,51.4,2c-0.6,0.4-1.1,1-1.5,1.6
			c-0.2,0.3-0.3,0.7-0.5,1c0,0.2-0.1,0.4-0.1,0.6C49.4,5.4,49.4,5.5,49.4,5.7z"/>
		<path class="st1" d="M1.2,14.6c-0.4,0-0.8,0-1.2,0h-0.1l-0.1-0.2l0,0c0.3-0.3,0.6-0.5,0.9-0.8c0.3-0.2,0.6-0.5,1-0.7
			c0.6-0.4,1.3-0.8,2-1.1c1.4-0.7,2.8-1.2,4.3-1.5c0.4-0.1,0.8-0.2,1.2-0.2C9.6,10,10,10,10.4,10s0.8,0,1.2,0s0.8,0.1,1.2,0.2
			c0.8,0.2,1.6,0.5,2.4,1c0.4,0.2,0.7,0.5,1,0.9c0.1,0.2,0.3,0.3,0.4,0.5s0.2,0.4,0.3,0.6l0,0l-0.1,0.1h-0.1c-0.2,0-0.4,0-0.6,0H16
			c-0.5,0-1,0-1.5,0c-0.7,0-1.3,0.1-1.9,0.2l-1.9,0.2l-1,0.1L8.1,14c-1.2,0.2-2.4,0.3-3.6,0.4c-0.9,0.1-1.5,0.1-2.2,0.2H2.2
			C1.9,14.6,1.6,14.6,1.2,14.6z M0.2,14.4c0.3,0,0.7,0,1.1,0c0.3,0,0.7,0,1,0h0.1c0.6,0,1.3-0.1,2.2-0.2c1.2-0.1,2.4-0.3,3.6-0.4
			l1.6-0.2l1-0.1l1.9-0.2c0.6-0.1,1.3-0.1,2-0.2c0.5,0,1,0,1.5,0h0.1c0.2,0,0.3,0,0.5,0c-0.1-0.2-0.2-0.3-0.3-0.5
			c-0.1-0.2-0.2-0.4-0.4-0.5c-0.3-0.3-0.6-0.6-1-0.8c-0.7-0.4-1.5-0.8-2.3-0.9c-0.4-0.1-0.8-0.1-1.2-0.2c-0.4,0-0.8,0-1.2,0
			c-0.3,0-0.7,0.1-1.2,0.1c-0.3,0-0.7,0.1-1.1,0.2c-1.5,0.3-2.9,0.8-4.3,1.5c-0.7,0.3-1.3,0.7-2,1.1c-0.3,0.2-0.6,0.4-0.9,0.7
			C0.7,13.9,0.4,14.1,0.2,14.4z"/>
		<path id="Path_96_1_" class="st1" d="M44.4,51c-0.1,0.2-0.1,0.3-0.1,0.5c0,0.1-0.1,0.2-0.1,0.3s0,0.2-0.1,0.2
			c-0.1,0.6-0.2,1.3-0.3,1.9c-0.1,1.1,0,2.3,0.1,3.4c0.1,0.5,0.2,1.1,0.4,1.6c0.1,0.3,0.2,0.5,0.3,0.7s0.2,0.5,0.3,0.7
			c0.4,1,0.7,2,1.1,3c0.7,2,1.4,4,2,6s1.2,4,1.7,6c0.3,1,0.5,2,0.7,3s0.4,2,0.6,3s0.4,2,0.5,3s0.3,2,0.3,3s0.1,2,0.1,3
			c0,0.9,0,1.9-0.1,2.8c0,0.4-0.1,0.8-0.2,1.3c-0.1,0.4-0.2,0.7-0.3,1c-0.1,0.2-0.2,0.4-0.3,0.6c0,0,0,0,0.1,0s0.2-0.1,0.3-0.1
			s0.3,0,0.4,0c0.1,0,0.1,0,0.1,0.1c-0.2-0.1-0.3-0.1-0.5-0.3c-0.3-0.2-0.5-0.5-0.8-0.7c-0.3-0.3-0.5-0.7-0.8-1
			c-0.5-0.8-1-1.6-1.4-2.5s-0.9-1.8-1.3-2.7S46.5,87,46.2,86c-0.2-0.5-0.3-1-0.5-1.5s-0.3-1-0.5-1.5c-0.3-1-0.6-2-0.8-3
			s-0.5-2.1-0.8-3.1c-1-4.2-1.7-8.4-2.3-12.7C41.1,63.1,41,62,40.8,61s-0.3-2.2-0.4-3.2c-0.3-2.2-0.5-4.3-0.7-6.5h-0.1
			c-0.2,2.2-0.4,4.4-0.5,6.6C39,59,39,60.1,39,61.2s-0.1,2.2-0.1,3.3c0,2.2,0,4.4,0.1,6.6c0,1.1,0.1,2.2,0.2,3.3s0.2,2.2,0.3,3.3
			s0.3,2.2,0.4,3.3s0.3,2.2,0.6,3.3c0.1,0.6,0.2,1.1,0.3,1.7s0.2,1.1,0.4,1.7c0.3,1.1,0.6,2.2,0.9,3.3s0.7,2.2,1.2,3.3
			c0.5,1.1,1,2.2,1.6,3.3c0.3,0.6,0.7,1.1,1.1,1.6c0.4,0.6,0.9,1.1,1.4,1.6c0.3,0.3,0.6,0.5,1,0.8s0.8,0.5,1.3,0.7s1.1,0.4,1.7,0.5
			c0.7,0.1,1.3,0,2-0.1c0.6-0.2,1.2-0.4,1.7-0.8c0.5-0.3,0.9-0.7,1.2-1.1s0.6-0.7,0.8-1.1c0.2-0.3,0.4-0.7,0.6-1.1
			c0.3-0.7,0.5-1.3,0.7-2.1c0.2-0.7,0.3-1.3,0.4-1.9c0.2-1.2,0.3-2.5,0.4-3.7c0.1-1.2,0.1-2.4,0-3.6S59.1,85,59,83.8
			s-0.3-2.3-0.4-3.4c-0.1-0.6-0.2-1.1-0.3-1.7S58.1,77.6,58,77c-0.2-1.1-0.5-2.2-0.7-3.3c-1-4.4-2.3-8.7-3.8-12.9
			c-0.4-1.1-0.8-2.1-1.1-3.1c-0.1-0.3-0.2-0.5-0.3-0.8s-0.2-0.5-0.3-0.8C51,54.5,50,53.2,48.6,52c-0.5-0.4-1-0.8-1.6-1.1l-0.2-0.1
			c-0.1,0-0.1-0.1-0.2-0.1C45.7,50.2,44.8,50.4,44.4,51"/>
		<path class="st1" d="M23.5,94.1c-0.2,0-0.4,0-0.6,0c-0.6-0.1-1.2-0.2-1.8-0.5c-0.5-0.2-0.9-0.5-1.3-0.7c-0.3-0.3-0.7-0.5-1-0.8
			c-0.6-0.5-1.1-1.1-1.5-1.7c-0.4-0.5-0.8-1.1-1.1-1.7c-0.6-1.1-1.2-2.2-1.7-3.4c-0.4-1-0.8-2.1-1.2-3.4c-0.4-1.2-0.7-2.3-0.9-3.4
			c-0.1-0.5-0.3-1.1-0.4-1.7c-0.1-0.5-0.2-1.1-0.3-1.7c-0.2-1-0.4-2.2-0.6-3.4c-0.2-1.3-0.3-2.4-0.4-3.4c-0.1-1.1-0.2-2.2-0.3-3.4
			c-0.1-1.2-0.2-2.5-0.2-3.4c-0.2-2.6-0.2-5-0.2-7.2c0-1.1,0-2.3,0.1-3.4c0-1.1,0.1-2.2,0.1-3.4c0.2-2.7,0.3-4.8,0.6-6.8v-0.1H11
			v0.1c0.1,0.9,0.2,1.8,0.3,2.7c0.1,1.3,0.3,2.7,0.5,4c0.1,0.9,0.2,1.7,0.3,2.6l0.1,0.7c0.1,1.1,0.3,2.2,0.5,3.3
			c0.8,5.1,1.5,9.3,2.4,13.2c0.3,1.2,0.5,2.3,0.8,3.2c0.2,1,0.5,2,0.9,3.2l0.1,0.3c0.1,0.4,0.3,0.8,0.4,1.2v0.1
			c0.2,0.5,0.3,1,0.5,1.4c0.4,1.1,0.8,2.1,1.1,3c0.4,1.1,0.9,2,1.3,2.8c0.4,0.9,0.9,1.7,1.5,2.5c0.2,0.4,0.5,0.7,0.8,1
			c0.2,0.2,0.3,0.4,0.5,0.5c0.1-0.3,0.2-0.7,0.3-1c0.1-0.4,0.2-0.9,0.2-1.3c0.1-1,0.2-1.9,0.1-2.9c0-1-0.1-2.1-0.1-3.1
			c-0.1-1.1-0.2-2.3-0.3-3.1c-0.2-1.1-0.3-2.2-0.5-3.2c-0.2-0.9-0.4-1.9-0.7-3.1c-0.2-1.1-0.5-2.1-0.8-3.1c-0.6-2.2-1.2-4.4-1.8-6.3
			c-0.7-2.3-1.5-4.5-2.1-6.2c-0.3-1-0.7-1.9-1.1-3.1c0-0.1-0.1-0.3-0.1-0.4C16,49.5,16,49.3,16,49.2c-0.1-0.3-0.2-0.5-0.3-0.8
			c-0.5-1.7-0.7-3.4-0.5-5.2c0.1-0.7,0.2-1.3,0.3-2c0,0,0-0.1,0-0.2v-0.1l0.1-0.3c0-0.1,0-0.1,0.1-0.2c0-0.1,0.1-0.2,0.1-0.3l0,0
			c0.5-0.7,1.4-0.9,2.2-0.5c0,0,0.1,0,0.1,0.1c0,0,0.1,0,0.1,0.1c0.1,0,0.2,0.1,0.2,0.1c0.6,0.3,1.1,0.7,1.7,1.2
			c0.9,0.8,1.8,1.7,2.4,2.7c0.3,0.5,0.6,1,0.9,1.5c0.1,0.2,0.2,0.5,0.4,0.8l0.3,0.8c0.4,1,0.7,2,1.2,3.3c1.6,4.4,2.9,8.9,4,13.4
			c0.3,1.1,0.5,2.2,0.7,3.4c0.1,0.5,0.2,1,0.3,1.6v0.2c0.1,0.6,0.2,1.2,0.3,1.7c0.2,1.3,0.3,2.5,0.5,3.5c0.1,1.4,0.2,2.5,0.3,3.6
			c0,1.4,0,2.6,0,3.7c-0.1,1.3-0.2,2.6-0.4,3.8c-0.1,0.7-0.3,1.4-0.5,2c-0.2,0.7-0.5,1.4-0.8,2.1c-0.2,0.4-0.4,0.8-0.6,1.1
			c-0.3,0.4-0.5,0.8-0.9,1.2c-0.4,0.4-0.8,0.8-1.3,1.2c-0.6,0.4-1.2,0.7-1.8,0.9C24.5,94,24,94.1,23.5,94.1z M10.9,41
			c-0.2,1.9-0.4,3.9-0.5,6.4c-0.1,1.2-0.1,2.3-0.1,3.4c0,1.2-0.1,2.3-0.1,3.4c0,2.3,0,4.6,0.1,6.8c0,1,0.1,2.2,0.2,3.4
			c0.1,1.3,0.2,2.3,0.3,3.4c0.1,1,0.3,2.1,0.4,3.4c0.2,1.2,0.4,2.4,0.6,3.4c0.1,0.6,0.2,1.2,0.3,1.7c0.1,0.6,0.3,1.2,0.4,1.7
			c0.3,1.1,0.6,2.2,0.9,3.4c0.4,1.3,0.8,2.4,1.2,3.4c0.5,1.2,1,2.3,1.6,3.4c0.3,0.6,0.7,1.1,1.1,1.7s0.9,1.2,1.5,1.7
			c0.3,0.3,0.6,0.6,1,0.8c0.4,0.3,0.8,0.5,1.3,0.7s1.1,0.4,1.7,0.5c0.7,0.1,1.4,0,2-0.1c0.6-0.2,1.2-0.5,1.8-0.8
			c0.5-0.3,0.9-0.7,1.2-1.1c0.3-0.4,0.6-0.7,0.8-1.2c0.2-0.4,0.4-0.7,0.6-1.1c0.3-0.7,0.6-1.4,0.8-2.1c0.2-0.7,0.3-1.3,0.5-2
			c0.2-1.3,0.3-2.6,0.4-3.8c0.1-1.1,0.1-2.3,0-3.7c0-1.1-0.1-2.2-0.3-3.6c-0.1-1.1-0.3-2.2-0.5-3.5c-0.1-0.6-0.2-1.1-0.3-1.7v-0.2
			c-0.1-0.5-0.2-1.1-0.3-1.6c-0.2-1.2-0.5-2.3-0.7-3.4c-1.1-4.5-2.4-9-4-13.3c-0.4-1.3-0.8-2.3-1.2-3.2l-0.3-0.8
			c-0.1-0.3-0.2-0.5-0.3-0.8c-0.3-0.5-0.5-1-0.9-1.5c-0.7-1-1.5-1.9-2.4-2.7c-0.5-0.4-1-0.8-1.6-1.1c-0.1,0-0.1-0.1-0.2-0.1
			c0,0-0.1,0-0.1-0.1c0,0-0.1,0-0.1-0.1c-0.7-0.4-1.5-0.2-2,0.5c0,0.1-0.1,0.2-0.1,0.3s0,0.1-0.1,0.2l-0.1,0.3v0.1
			c0,0.1,0,0.1,0,0.2c-0.1,0.6-0.3,1.3-0.3,2c-0.1,1.7,0,3.5,0.5,5.1c0.1,0.3,0.2,0.5,0.3,0.8c0,0.1,0.1,0.3,0.1,0.4
			c0,0.1,0.1,0.3,0.1,0.4c0.4,1.1,0.8,2.1,1.1,3.1c0.6,1.7,1.4,3.9,2.1,6.2c0.6,1.9,1.2,4.1,1.8,6.3c0.3,1,0.5,2.1,0.8,3.1
			c0.3,1.2,0.5,2.2,0.7,3.1c0.2,1,0.4,2,0.5,3.2c0.1,0.9,0.3,2,0.3,3.1c0.1,1,0.1,2,0.1,3.1c0,1,0,1.9-0.1,2.9
			c0,0.4-0.1,0.9-0.2,1.3s-0.2,0.7-0.3,1.1l0,0l0.1,0.1c0.1,0.1,0.2,0.2,0.3,0.2l0,0c0.1,0,0.2,0.1,0.2,0.1v0.1l-0.1,0.1l0,0
			c-0.1,0-0.1,0-0.1-0.1c-0.1,0-0.2,0-0.3,0c-0.1,0-0.2,0.1-0.3,0.1l0,0c0,0-0.1,0.1-0.1,0c-0.1,0,0-0.1,0-0.1
			c0.1-0.1,0.1-0.3,0.2-0.4c-0.2-0.2-0.4-0.4-0.6-0.6c-0.3-0.3-0.6-0.7-0.8-1.1c-0.6-0.8-1.1-1.7-1.5-2.5s-0.8-1.8-1.3-2.8
			c-0.4-0.9-0.7-1.9-1.1-3c-0.2-0.5-0.3-1-0.5-1.4v-0.1c-0.1-0.4-0.3-0.8-0.4-1.2l-0.1-0.3c-0.3-1.2-0.6-2.2-0.9-3.2
			c-0.2-0.9-0.5-2.1-0.8-3.2c-0.9-3.9-1.7-8.1-2.4-13.2c-0.2-1.1-0.3-2.2-0.5-3.3l0.1-1c-0.1-0.9-0.2-1.7-0.3-2.6
			c-0.2-1.3-0.3-2.7-0.5-4C11.1,42.6,11,41.8,10.9,41z M23,86.9c0,0.1,0,0.1,0,0.2c0.1,0,0.1,0,0.2,0h0.1C23.2,87,23.1,87,23,86.9
			C23.1,87,23.1,86.9,23,86.9z"/>
	</g>
</g>
<g id="Group_15-2_1_" transform="translate(72.85 32.934)">
	<g>
		<path id="Path_100_00000053546783585878623030000009612309634276494007_" class="st2" d="M11.2,9.2H7.5l3.1-5.9l0,0L11.2,9.2z
			 M0,15.3h4.2l1.7-3.2h5.6l0.4,3.2h3.9l-2.4-15H8.7L0,15.3z"/>
		<path id="Path_101_00000060027808150512732640000015728188676848101285_" class="st2" d="M17,15.3h10l0.6-3h-6.1l2.4-12H20
			L17,15.3z"/>
		<path id="Path_102_00000168811398673870981600000017676331363265283513_" class="st2" d="M28.2,15.3h10.5l0.6-2.8h-6.7L33.3,9h6
			L40,6.2h-6.1l0.7-3.1H41l0.6-2.8H31.3L28.2,15.3z"/>
		<path id="Path_103_00000074425784282083110350000005444844070427325597_" class="st2" d="M39.4,15.3h4.7L48,9.9l1.8,5.4H54
			l-3.2-7.8l5.8-7.2H52L48.6,5l-1.5-4.8h-4.2l3,7L39.4,15.3z"/>
		<path id="Path_104_00000054956449570930184730000004364610300146822289_" class="st2" d="M76.1,0.8C74.5,0.2,72.7-0.1,71,0
			c-5.5,0-8.9,3.6-8.9,8.5c0,4.1,2.7,7,7.4,7c1.3,0,2.6-0.2,3.9-0.6l0.4-3.2c-1.1,0.6-2.4,0.9-3.7,0.8c-2.3,0-4-1.2-4-3.9
			c0-2.8,1.6-5.7,5.5-5.7c1.3-0.1,2.5,0.3,3.6,0.9L76.1,0.8z"/>
		<path id="Path_105_00000127005068849753179560000005069831089439047605_" class="st2" d="M78.8,15.3h4l1.1-5.5l7.3-9.5h-4.8l-4,6
			l-1.8-6h-4.1l3.4,9.5L78.8,15.3z"/>
		<path id="Path_106_00000043426156572995673160000017746694662145723548_" class="st2" d="M89.2,15.3h3.9l1.4-6.8l0,0l3.6,6.8h4.5
			l-4.3-7.7l6.9-7.3h-5L95,6.4l0,0l1.3-6.1h-3.9L89.2,15.3z"/>
		<path id="Path_107_00000156579728541760400320000001649096412643807925_" class="st2" d="M103.9,15.3h10l0.6-3h-6.1l2.4-12h-3.9
			L103.9,15.3z"/>
		<path id="Path_108_00000053545169260258190610000013275652221054794647_" class="st2" d="M115,15.3h10.5l0.6-2.8h-6.6l0.7-3.4h6
			l0.6-2.8h-6.1l0.7-3.1h6.4l0.6-2.8h-10.2L115,15.3z"/>
		<path id="Path_109_00000080182143628783259400000015695287104454627970_" class="st2" d="M127.4,15.3h3.9l1.2-5.9h0.4
			c1.7,0,1.9,0.2,2.3,2.1l0.7,3.8h3.9l-1-4.6c-0.2-1-0.6-2.6-1.7-2.7l0,0c2.2-0.3,4.2-1.2,4.2-3.9c0-3.7-3.3-3.8-6.1-3.8h-4.6
			L127.4,15.3z M133.7,3.1h1.9c1.2,0,1.8,0.5,1.8,1.5c0,1.4-1.3,1.9-3,1.9H133L133.7,3.1z"/>
	</g>
</g>
<path id="Path_196" class="st3" d="M78.5,71.9h-1.2l-2.6-2.8v2.8h-0.9v-6.7h0.9v2.9l2.2-2.9H78l-2.6,3.3L78.5,71.9z"/>
<path id="Path_197" class="st3" d="M79.5,72.1L79,71.6l0.8-0.8c-0.5-0.6-0.8-1.4-0.8-2.2c0-1.9,1.5-3.4,3.3-3.4
	c0.8,0,1.6,0.3,2.2,0.8l0.8-0.8l0.5,0.4L85,66.4c0.5,0.6,0.8,1.4,0.8,2.2c0,1.9-1.5,3.4-3.4,3.4c-0.8,0-1.5-0.3-2.1-0.7L79.5,72.1z
	 M80.4,70.2l3.5-3.6c-1.1-0.9-2.6-0.7-3.5,0.3c-0.4,0.5-0.6,1.1-0.6,1.7C79.9,69.1,80.1,69.7,80.4,70.2z M84.8,68.6
	c0-0.6-0.2-1.1-0.5-1.5l-3.5,3.6c0.4,0.3,1,0.5,1.5,0.5C83.7,71.1,84.8,70,84.8,68.6L84.8,68.6L84.8,68.6z"/>
<path id="Path_198" class="st3" d="M91.1,68.3c0.7,0.2,1.2,0.9,1.2,1.6c0,1-0.8,1.9-1.8,1.9c-0.1,0-0.1,0-0.2,0h-2.7v-6.7h2.5
	c0.9-0.1,1.7,0.6,1.8,1.5c0,0.1,0,0.2,0,0.3C92,67.5,91.7,68.1,91.1,68.3z M90.1,68c0.5,0,0.9-0.4,0.9-0.9V67c0-0.5-0.4-0.9-0.8-0.9
	h-0.1h-1.5V68H90.1L90.1,68z M88.5,68.8v2.3h1.8c0.6,0,1.1-0.5,1.1-1.1l0,0c0-0.6-0.5-1.1-1.1-1.2L88.5,68.8L88.5,68.8z"/>
<path id="Path_199" class="st3" d="M98.1,65.2V66H95v2.1h2.7V69H95v2h3.1v0.8h-4v-6.7L98.1,65.2L98.1,65.2z"/>
<path id="Path_200" class="st3" d="M104.1,71.9l-3-5v5h-0.9v-6.7h0.9l3,5v-5h0.9v6.7H104.1z"/>
<path id="Path_201" class="st3" d="M112.3,71.9h-0.9V69h-3.2v2.9h-0.9v-6.7h0.9v2.9h3.2v-2.9h0.9V71.9z"/>
<path id="Path_202" class="st3" d="M115.4,70.2l-0.7,1.7h-1l2.5-6.7h1l2.5,6.7h-0.9l-0.7-1.7H115.4z M117.9,69.4l-1.1-3l-1.1,3
	H117.9z"/>
<path id="Path_203" class="st3" d="M122.8,70.4l1.5-5.2h0.9l-2,6.7h-0.9l-2-6.7h0.9L122.8,70.4z"/>
<path id="Path_204" class="st3" d="M130.9,71.9l-3-5v5H127v-6.7h0.9l3,5v-5h0.9v6.7H130.9z"/>
<path id="Path_205" class="st3" d="M165.4,71.9h-1.2l-2.6-2.8v2.8h-0.9v-6.7h0.9v2.9l2.2-2.9h1.1l-2.6,3.3L165.4,71.9z"/>
<path id="Path_206" class="st3" d="M167.5,70.2l-0.7,1.7h-1l2.5-6.7h1l2.5,6.7H171l-0.7-1.7H167.5z M170,69.4l-1.1-3l-1.1,3H170z"/>
<path id="Path_207" class="st3" d="M175.3,71.2c0.6,0.1,1.2-0.3,1.3-1s-0.5-1.1-1.1-1.2l-0.9-0.2c-1.4-0.4-1.6-1.2-1.6-1.7
	c0.1-1.1,1-2,2.1-1.9l0,0c1.1-0.1,2,0.7,2.1,1.8c0,0.1,0,0.1,0,0.2h-0.9c-0.1-0.7-0.8-1.2-1.4-1.1c-0.5,0.1-1,0.5-1.1,1
	c0,0.3,0.1,0.7,0.9,0.9l0.9,0.2c1.3,0.3,1.9,1,1.8,2.1c-0.2,1.1-1.1,1.8-2.2,1.7c-1.2,0.1-2.2-0.8-2.3-2h0.9
	C173.9,70.7,174.6,71.2,175.3,71.2z"/>
<path id="Path_208" class="st3" d="M183.7,65.3v0.9h-2V72h-0.9v-5.8h-2v-0.9H183.7z"/>
<path id="Path_209" class="st3" d="M189.9,71.9h-1.1l-1.7-2.5h-0.9v2.5h-0.9v-6.7h2.6c1.1,0,1.9,0.8,2,1.8c0,0.1,0,0.2,0,0.3
	c0.1,1-0.6,1.9-1.7,2c0,0,0,0-0.1,0L189.9,71.9z M186.3,66.1v2.5h1.6c0.7-0.1,1.2-0.7,1.1-1.4c-0.1-0.6-0.5-1-1.1-1.1H186.3z"/>
<path id="Path_210" class="st3" d="M195.7,69.6v-4.4h0.9v4.4c0,1.3-1.2,2.4-2.5,2.4s-2.3-1.1-2.4-2.4v-4.4h0.9v4.4
	c0,0.8,0.7,1.5,1.5,1.5C195,71.2,195.7,70.5,195.7,69.6L195.7,69.6z"/>
<path id="Path_211" class="st3" d="M201.5,65.3c1.2,0.1,2,1,2,2.2c0,1.1-0.9,1.9-2,2h-1.8V72h-0.9v-6.7H201.5L201.5,65.3z
	 M199.8,66.1v2.5h1.7c0.7-0.1,1.2-0.7,1.1-1.4c-0.1-0.6-0.5-1.1-1.1-1.1H199.8z"/>
<circle id="Ellipse_19" class="st3" cx="145.5" cy="68.7" r="1.3"/>
<image style="overflow:visible;" width="602" height="488" xlink:href="A547B8.jpg"  transform="matrix(1 0 0 1 450.2158 -501.3597)">
</image>
</svg>
